<?xml version="1.0" encoding="utf-8"?>
<!-- Generator: Adobe Illustrator 25.2.1, SVG Export Plug-In . SVG Version: 6.00 Build 0)  -->
<svg version="1.1" id="Capa_1" xmlns="http://www.w3.org/2000/svg" xmlns:xlink="http://www.w3.org/1999/xlink" x="0px" y="0px"
	 viewBox="0 0 118.6 118.6" style="enable-background:new 0 0 118.6 118.6;" xml:space="preserve">
<style type="text/css">
	.st0{fill:none;stroke:#000000;stroke-width:0.5;stroke-linecap:round;stroke-linejoin:round;}
</style>
<g id="Capa_2_1_">
	<g id="Layer_01">
		<polygon class="st0" points="62.7,63 62.6,62.8 63,62.6 		"/>
		<polygon class="st0" points="66.2,41.3 65.8,41.1 65.9,40.6 		"/>
		<polygon class="st0" points="74.2,35.8 73.9,35.6 74.1,34.8 		"/>
		<polyline class="st0" points="65.7,63.1 65.8,63.2 66.2,62.9 65.7,63.1 65.3,63 		"/>
		<polygon class="st0" points="48.3,44.3 48.2,44.8 47.9,44.4 		"/>
		<polyline class="st0" points="47.7,44.7 47.7,44.3 47.3,44.6 47.7,44.7 47.9,44.4 		"/>
		<polyline class="st0" points="48.3,44.3 48.6,44.2 48.4,43.8 47.9,44.4 		"/>
		<polyline class="st0" points="64.2,62.6 64.1,62.7 64.1,63 64.2,62.6 64.3,62.2 64.6,62 64.5,61.7 64.8,61.7 64.4,61.3 64.7,61 
			64.4,61.1 64.1,61 63.6,61.3 62.9,61.5 62.3,61.6 		"/>
		<polyline class="st0" points="90.5,31.3 90.4,31.4 90.6,31.3 90.5,31.5 		"/>
		<polygon class="st0" points="88,39.1 87.6,39.3 87.8,39 		"/>
		<polyline class="st0" points="45.3,20 45.5,19.6 45.8,19.4 46.6,18.7 		"/>
		<polygon class="st0" points="75.1,67 74.8,68.4 74.4,69.2 74.3,68.8 74.2,68.4 74.6,68 74.9,67.5 		"/>
		<polyline class="st0" points="79.5,97.3 79.2,97.6 78.9,98.1 78.6,98.4 78.1,98.9 77.5,99.5 76.8,100.3 		"/>
		<polygon class="st0" points="58.9,10.6 58.7,10.7 59.7,11 		"/>
		<polyline class="st0" points="61.9,11 61.9,11 61.9,11 		"/>
		<polyline class="st0" points="62.9,61.5 63.2,60.7 62.6,60 62.6,61 62.3,61.6 		"/>
		<polyline class="st0" points="82.6,18.1 83,18 83.9,18.6 84.8,19.2 85.3,19.4 86.9,20.2 87.5,21.2 87.7,22 87.1,21.7 86.6,21.5 		
			"/>
		<polygon class="st0" points="47.5,46.7 47.4,46.3 47.2,46.7 		"/>
		<polyline class="st0" points="47.5,46.7 46.8,47.2 47.2,46.7 		"/>
		<polyline class="st0" points="50.9,19.3 50.6,19.7 50.9,19.7 50.5,20 50.8,20.1 50.7,20.4 51.1,20.5 50.7,20.6 50.6,20.8 
			50.3,21.5 50.8,21.7 50.7,22.6 51.3,22.6 51,23.1 51.5,23 51.5,23.4 51.6,23.3 51.7,22.4 51.8,23.1 51.9,23.4 52.3,24 52,25 
			52.1,25.3 52.2,25.6 52.3,26.2 52.5,26.2 52.4,26.6 52.6,26.6 52.8,27.2 52.3,26.9 52.3,27.1 51.5,26.9 51.4,27.1 50.8,26.7 
			50.5,27.1 50.4,26.9 50,27.4 50,26.9 49.6,27.4 49.2,27.3 49,28 48.5,27.8 48.4,28 48.3,28.1 48.4,28.5 48,28.3 47.4,28.6 
			47.5,29.1 47.1,29.5 47.2,28.2 47,27.8 47.4,27.2 46.9,27.5 46.5,27.4 46.6,27.7 45.9,27.4 45.6,27 45,26.9 45.1,26.6 44.2,26.4 
			43.8,26.4 43.7,25.7 43.4,25.4 43.4,24.9 43,25 43.1,24.4 42.9,24.6 42.8,25 42.7,24.7 		"/>
		<polyline class="st0" points="51.6,18.8 51.7,18.6 51.7,18.4 51.9,18.1 52.1,17.7 51.4,17.3 52.1,17.4 52.5,17.4 52.2,17 53,17.1 
			52.9,17 53,17 53.2,17 53.3,17.3 53.5,17.1 53.6,17.2 53.7,17.2 53.8,17.3 53.9,17.2 53.6,16.6 53.9,16.7 53.8,16.5 53.6,16.3 
			53.6,16.1 53.4,15.9 53.3,15.7 53.3,15.5 53.1,15.3 53,14.9 53.5,15.2 54.4,14.2 53.5,14.1 53.5,13.6 53.7,13.3 53,14 53.1,13.8 
					"/>
		<polyline class="st0" points="74.2,68.4 73.8,68.2 73.6,69.1 73.3,68.6 72.8,69.5 72.7,69.3 72.5,70 72.3,69.9 72.2,70.5 
			72.1,70.2 72.1,70.7 71.9,71 71.8,71.3 71.6,71.8 71.5,72.4 71.3,72.4 71.1,72.7 71.2,73.2 71,73.3 70.9,73.8 71,74 70.9,74.1 
			70.9,74.5 70.9,74.7 70.8,74.9 		"/>
		<polyline class="st0" points="41,26.7 41.4,26 41.2,26.5 		"/>
		<line class="st0" x1="61.9" y1="11" x2="61.8" y2="11"/>
		<polyline class="st0" points="79.2,97.6 79.8,96.7 79.6,96.6 80.1,95.8 80,94.4 80.2,94.4 80.4,94 80.4,92.7 80.7,92 80.6,91.5 
			80.8,91.2 80.9,90.1 81,89.3 		"/>
		<polygon class="st0" points="61.5,45.8 60.8,46.1 61.3,46.2 		"/>
		<polygon class="st0" points="65.9,40.6 66.3,40.9 66.6,40.9 67,41 67,40.8 67.4,40.6 67.2,40.4 67,40.6 66.9,40.2 67,40.1 
			66.8,40.1 66.3,39.9 66.3,39.8 65.9,40 		"/>
		<polyline class="st0" points="67.4,40.6 67.9,40.8 68,41.1 68,41.4 68.3,41.8 68.2,42.1 68.2,42.3 68.2,42.6 68.3,42.8 68.5,43.1 
			68.2,43.8 68.4,44 69.1,44 68.7,44.5 69.1,44.5 69.4,44.6 69.7,44.1 69.8,44.5 70.2,44 70.3,43.7 70.4,43.1 70.4,42.5 70.2,41.9 
			69.9,41.8 69.9,41.5 69.7,41.2 69.5,40.8 69.1,40.4 68.8,40.2 68.2,39.8 67.8,39.7 68.2,39.3 67.7,38.8 67.7,39.4 67.1,39.3 
			67.1,38.7 67,38.1 66.7,38.8 66.3,38.2 65.9,37.9 66,37.3 65.8,36.9 65,36.6 64.7,36.2 65.3,35.9 65.4,35.7 64.4,35.3 64.5,35 
			64.6,34.8 64.4,34.5 64.1,33.9 64.3,33.6 63.8,32.7 64.6,33.5 64.7,33 65.4,34 65.5,33.5 66.3,33.2 65.3,32.7 66.4,32.5 
			65.8,31.8 65.3,31 64.6,31 64.1,30.4 64.9,29.9 63.6,30.1 64.8,29 63.4,29.4 63.1,28.7 63.2,27.9 62.5,28.4 62.5,27.9 62.5,27.7 
			62.4,27.3 61.4,27.1 60.8,26.7 60.2,26.5 59.4,25.9 59,26 58.7,25.7 58.3,25.8 57.9,25.2 57.1,25.1 56,26 55.4,25.7 54.7,26.1 
			54.3,26.1 54.1,26.4 53.9,26.6 53.5,26.7 53.4,27.1 53.1,26.9 52.9,27 52.7,26.3 52.8,27.2 		"/>
		<polygon class="st0" points="62.7,63 62.4,63.5 62,63.9 61.7,63.6 61.6,63.9 61.5,63.7 61.3,64.2 61.2,63.4 60.8,64.2 61.2,64.6 
			60.4,64.5 60.3,64.8 60.3,65.4 60.1,65.9 60.4,66 60.5,66.1 60,66.5 59.9,66.8 60.1,67 60.5,66.5 60.5,66.7 60.7,66.6 61,66.5 
			61.5,66.4 61.5,65.9 62.2,65.6 62.5,65.7 62.7,65.4 62.5,65.2 63,64.8 63.1,64.5 62.8,64.4 63.2,64 63.2,63.4 62.8,63.4 		"/>
		<polyline class="st0" points="45.1,41.5 45,41.6 44.9,41.5 44.7,41.6 44.4,41.7 44.3,41.6 44.4,41.9 43.9,41.6 43.6,41.5 
			43.6,41.1 43.2,40.7 43,40.2 42.6,39.9 42.4,39.7 42.2,39.5 		"/>
		<polyline class="st0" points="85.3,40.6 85.1,39.9 85.2,39.5 		"/>
		<polyline class="st0" points="65.9,48.5 65.7,48.7 65.8,48.5 65.8,48.3 66.4,48 66.1,47.7 65.9,47.4 65.5,47.4 65,47.4 64.9,47.8 
			64.7,47.5 64.7,48 64.5,47.6 64.5,47.2 64.5,47.2 64.5,47.1 64.3,47 64.3,47 64.1,46.8 64.4,46.6 64.1,46.1 64.4,45.8 64.4,45.2 
			64.7,44.7 65,44.3 65,44 65.2,43.8 64.8,43.9 65.2,42.9 64.8,43.2 64.4,42.5 64.1,42.1 63.6,41.8 63.3,41.6 63,41.8 62.6,41.8 
			62.8,42.5 62.5,43.2 62.5,44.1 62,44.9 61.9,45.2 61.5,45.8 		"/>
		<polyline class="st0" points="89.9,25.4 89.6,24.4 89.5,24.2 89.3,24.3 89,24.7 89,24.1 89,23.8 88.9,23.9 		"/>
		<polyline class="st0" points="84.7,19.6 84.1,19.2 84.5,19.6 83.7,19 84.1,19.6 83.1,18.8 83.1,19.2 82.4,19 82.5,19.4 82,18.7 
			82.1,19.1 82,18.8 		"/>
		<polyline class="st0" points="46.1,51.2 46,50.7 46.2,50.9 46.2,50.5 46.7,50.2 46.7,49.8 47,49.5 47.2,48.6 47.5,49 47.5,48.2 
			48,48.5 48,47.6 48.7,47.6 48,47.2 48.1,46.5 47.8,46.5 48,45.8 48.6,45.3 48.9,44.9 49.2,44.8 49.9,44.3 49.8,44.5 50.2,44.2 
			50.2,44.5 50.8,44.2 51,44.4 51.2,44.7 51.2,45 51.3,45.2 51.4,45.4 51.9,44.5 52.3,44.1 51.9,44 52.3,43.7 52.1,43.6 52.6,43.3 
			52.2,43.3 52.5,43.2 52.4,42.9 52.3,42.5 52.8,42.6 52.5,42.5 52.4,42 52.2,41.6 52.4,41.2 52.5,40.9 52.1,40.8 52.5,40.5 
			52,40.5 52,40.1 51.6,40 51.5,39.7 51,39.2 51.1,38.4 50.6,38.4 51,37 50.6,36.5 50.4,35.8 50,35.3 49.9,34.5 49.6,34.6 
			49.3,34.3 49.3,34.2 49.1,33.7 49.4,33.5 49.5,33.2 49,33.6 49.6,32.9 49,33.3 49.4,32.7 49,32.9 48.8,32.5 48.2,32.6 48.7,31.5 
			48.2,32.2 48.5,31.6 48.1,32 48.3,31.2 48.1,31.4 48,31 47.9,31.1 47.5,31.1 48,29.8 47.1,30.6 47.9,29.5 47.5,29.1 		"/>
		<polyline class="st0" points="65.8,63.2 66.5,63.3 66.9,63.1 67.2,63.3 67.1,63.6 67.9,63.8 67.3,64.6 68.4,64.9 68.2,65.8 
			68,66.8 68.4,68 67.9,68.4 67.7,69.3 68.2,69.6 67.9,70.1 67,70.4 67.2,71.1 66.5,71.3 66.8,72 66,71.6 65.9,72.4 65.2,73.1 
			65.3,73.4 64,73.4 64.9,74 63.6,73.9 64.4,74.5 63.1,74.1 63.4,74.9 62.5,74.9 63.2,75.6 61.4,74.9 61.4,76.3 60.2,76.4 
			60.4,77.1 60.2,77.3 58.7,77.2 57.4,77.3 56.5,77 54.9,76.8 53.5,76.7 52,76.6 51.2,76.6 50.3,76.3 49.3,76.1 48,76 48.1,74.8 
			46.9,75.1 45.3,75.9 44.8,75.8 44,74.3 43.2,75.7 42.9,74.7 41.8,74.8 41.4,75.4 40.8,75 40.7,74.4 39.9,74.2 38.5,75 38.5,74.4 
			37.3,75 37.5,74.2 36.6,74.7 36.7,73.7 36.3,74.9 35.9,74.9 35.7,74.9 35.4,74.6 35.3,74.4 34.9,74.6 34.8,74.4 34,74.6 
			34.2,74.1 34,73.9 33.3,74.5 33,74.6 32.6,74.5 32.5,74.5 32.2,74.5 32,74.5 32,74.1 31.1,74.6 31,74.5 		"/>
		<polyline class="st0" points="70,15.2 69.9,15.4 72.3,14.9 72.1,15.1 72.8,15.5 73,15.5 73.3,15.6 74,15.2 74.2,15.3 74.4,15.5 
			74.8,15.6 75.3,15.5 75.6,15.4 75.9,15.2 75.9,14.5 76.9,15 76.6,14.3 77.1,14.6 77.1,14.1 77.4,14.2 78.4,14.7 78.3,14.4 
			78.1,14.2 79.2,14.4 78.8,14 		"/>
		<polyline class="st0" points="54.4,14.2 54.3,14.8 55,14.2 55.3,14.9 55.2,15.5 55.2,16 55.1,16.5 55.4,16.6 55.6,16.9 55.7,16.6 
			56.2,17 56.7,16.2 57,17 57.5,16.5 57.6,16.6 58,16 58,15.4 57.6,15.4 57.5,15.1 58.2,14.8 58.5,14.5 59,13.9 59.1,14 58.5,14.9 
			59.2,14.5 59.2,14.2 59.3,14.6 59.4,14.8 59.5,15.2 59.5,15.4 59.6,15.5 60,15.5 60.2,15 60.9,15.6 61.2,15.3 61.9,15.6 
			61.1,14.9 62.2,14.9 62.4,15.4 62.9,15.6 63.2,15.5 63.6,15 64.1,15.4 64.2,15.1 64.7,15.5 64.9,15.4 65.3,15.7 65.4,15.6 
			65.7,15.5 66.4,15.5 66.8,15.2 67.2,15.4 67.8,15.2 68.2,15.3 68.9,15.4 68.6,15.5 		"/>
		<polyline class="st0" points="68.4,64.9 69.1,65.7 70.1,65 70.5,65.4 70.7,66 71.2,66 71.4,66.5 71.7,65.4 72.1,65.6 72.1,65 
			72.6,65 72.6,64.5 73,65 73.2,64.5 73.7,64.2 74.5,64.3 74.8,63.7 75.2,64.1 75.6,63.7 75.7,64.1 75.9,63.3 76.1,62.8 		"/>
		<line class="st0" x1="73.9" y1="58.6" x2="73.5" y2="58.6"/>
		<line class="st0" x1="67.3" y1="53.5" x2="67.3" y2="53.2"/>
		<polyline class="st0" points="88.6,31.4 88.6,31.1 88.5,30.9 		"/>
		<polyline class="st0" points="77.2,51.6 77.6,51.5 77.3,51.6 77.3,51.6 		"/>
		<polyline class="st0" points="37.7,78 37.8,78 38,78.1 		"/>
		<line class="st0" x1="84.9" y1="39" x2="85.1" y2="39.7"/>
		<line class="st0" x1="63" y1="10.9" x2="62.5" y2="11.1"/>
		<line class="st0" x1="75.3" y1="17.2" x2="76.3" y2="16.9"/>
		<polyline class="st0" points="68.8,100.5 69,100.5 69.3,100.5 		"/>
		<polyline class="st0" points="62.4,65.8 62.5,65.7 62.9,65.2 63.1,65 		"/>
		<line class="st0" x1="45.9" y1="42.6" x2="46" y2="43.3"/>
		<polyline class="st0" points="67.6,63.2 67.8,63.4 67.8,63.4 		"/>
		<line class="st0" x1="44.9" y1="37.5" x2="44.8" y2="37.8"/>
		<polyline class="st0" points="45.2,37.2 45.3,37 45.2,37.2 		"/>
		<line class="st0" x1="81.3" y1="16.1" x2="81.6" y2="16.4"/>
		<polyline class="st0" points="91.2,28 90.9,27.5 90.6,27.1 		"/>
		<polyline class="st0" points="81.8,18.3 82,18.9 81.8,18.1 81.6,17.2 81.6,17.3 		"/>
		<polyline class="st0" points="41.8,24.2 41.7,24.8 41.7,24.6 		"/>
		<polyline class="st0" points="71.9,76.3 72.2,76.4 72.6,76.7 		"/>
		<line class="st0" x1="77" y1="56.8" x2="76.9" y2="57"/>
		<polyline class="st0" points="46.9,53.2 46.8,52.8 46.7,52.4 		"/>
		<polyline class="st0" points="46.7,52.2 46.6,52 46.6,51.9 		"/>
		<line class="st0" x1="46.8" y1="52.5" x2="46.7" y2="52.2"/>
		<polyline class="st0" points="60.5,11 60.6,11 60.5,11 		"/>
		<polyline class="st0" points="47.8,51.5 48.1,50.8 47.9,51.3 		"/>
		<polyline class="st0" points="43,25.8 43,25.8 42.9,25.6 42.7,24.7 		"/>
		<polyline class="st0" points="85,18.9 85.1,18.9 84.3,18.5 		"/>
		<polyline class="st0" points="69.6,60.5 69.5,61 69.2,61.7 69,62 68.8,62.4 		"/>
		<polyline class="st0" points="86.1,28.5 86,28.4 85.9,28.1 		"/>
		<polyline class="st0" points="46.8,46.3 47.1,46 47.6,45.7 		"/>
		<polyline class="st0" points="46.6,46.6 46.7,46.5 46.8,46.3 		"/>
		<line class="st0" x1="49.5" y1="16.5" x2="49" y2="16.8"/>
		<polygon class="st0" points="65.5,12.2 65.2,12.3 64.8,12.4 		"/>
		<polygon class="st0" points="80.7,15.4 80.9,15.6 80.6,15.2 		"/>
		<line class="st0" x1="85" y1="43.1" x2="85" y2="43.1"/>
		<polygon class="st0" points="77.8,54.9 78.1,54.4 77.8,55.2 		"/>
		<line class="st0" x1="46" y1="18.8" x2="46" y2="18.8"/>
		<polyline class="st0" points="46,18.8 46.1,18.6 46,18.8 		"/>
		<polyline class="st0" points="81.7,46.2 81.6,46.2 81.5,46.3 		"/>
		<line class="st0" x1="67.8" y1="18.1" x2="68.5" y2="18.2"/>
		<polyline class="st0" points="74.8,58.8 74.8,58.8 74.9,58.7 74.8,58.8 74.6,58.8 		"/>
		<line class="st0" x1="76.1" y1="57.1" x2="76.1" y2="57.1"/>
		<line class="st0" x1="76.1" y1="57.1" x2="76.1" y2="57.1"/>
		<polyline class="st0" points="76,57.2 76,57.2 76.1,57 		"/>
		<line class="st0" x1="84.6" y1="39.3" x2="84.5" y2="38.7"/>
		<polyline class="st0" points="66.3,45.4 66.9,45.3 67.2,45.2 67.5,45.1 68,45.2 		"/>
		<polyline class="st0" points="49.3,61.7 49.4,62 49.5,62.3 49.6,62.5 49.8,62.6 49.9,63 		"/>
		<line class="st0" x1="50.5" y1="15.3" x2="50.7" y2="15.1"/>
		<polyline class="st0" points="89.5,32.9 89.8,33.3 89.8,33.3 		"/>
		<line class="st0" x1="89.7" y1="33.2" x2="89.6" y2="33"/>
		<polyline class="st0" points="89.9,33.6 89.9,33.6 89.8,33.3 89.8,33.3 		"/>
		<polyline class="st0" points="88.5,38.4 88.4,38.2 88.3,38 88.2,37.7 		"/>
		<polyline class="st0" points="83.5,17.4 83.3,17.2 82.8,16.8 		"/>
		<line class="st0" x1="45" y1="41.1" x2="45.1" y2="40.8"/>
		<line class="st0" x1="81.4" y1="46.5" x2="81.5" y2="46.2"/>
		<polyline class="st0" points="80.3,86.3 80.3,86.1 80.3,86.1 		"/>
		<polyline class="st0" points="46.3,78.4 47.2,78.5 47.7,78.6 47.4,78.5 		"/>
		<polyline class="st0" points="90.8,30 91.1,29.7 91.2,29.4 		"/>
		<line class="st0" x1="49.2" y1="42.9" x2="49.2" y2="43"/>
		<line class="st0" x1="45" y1="40.9" x2="45.1" y2="40.8"/>
		<polyline class="st0" points="45.1,41.7 45.1,41.5 45.2,41.3 45.2,41.2 		"/>
		<polyline class="st0" points="45.2,41.4 45.2,40.8 44.9,40.6 44.7,40.3 44.5,40 44.4,39.7 		"/>
		<line class="st0" x1="41.5" y1="25.8" x2="41.8" y2="25.5"/>
		<line class="st0" x1="37.3" y1="77.9" x2="37.7" y2="78"/>
		<line class="st0" x1="89.6" y1="33" x2="89.6" y2="33"/>
		<line class="st0" x1="46" y1="42.7" x2="45.8" y2="42.2"/>
		<polyline class="st0" points="88.6,38.8 88.6,38.8 88.6,38.6 		"/>
		<polyline class="st0" points="88.6,38.8 88.6,38.6 88.6,38.5 88.6,38.3 		"/>
		<polyline class="st0" points="47,46.2 47,46.1 46.7,45.9 46.7,45.8 46.5,45.4 46.2,44.5 46.2,43.9 		"/>
		<line class="st0" x1="74.3" y1="13.3" x2="74.3" y2="13.3"/>
		<polyline class="st0" points="47.2,53.1 47.1,53.5 47,53.7 		"/>
		<polyline class="st0" points="76.9,100.2 76.8,100.3 76.5,100.5 		"/>
		<polyline class="st0" points="42.7,24.7 42.7,24.2 42.7,23.9 		"/>
		<line class="st0" x1="73.5" y1="58.6" x2="73.5" y2="58.6"/>
		<polyline class="st0" points="41.7,38.9 41.9,39.2 41.8,39 		"/>
		<polyline class="st0" points="41.7,38.9 41.6,38.8 41.7,38.9 		"/>
		<polyline class="st0" points="33.2,77.7 33.2,77.7 34.3,78.6 		"/>
		<polyline class="st0" points="88,25.4 88.2,25.7 88.5,26.4 88.8,27 88.8,27.2 89,27.9 		"/>
		<polyline class="st0" points="87.6,25 87.1,24.4 86.9,24 86.8,23.9 		"/>
		<line class="st0" x1="81.3" y1="16.5" x2="81.6" y2="17.2"/>
		<polyline class="st0" points="47.9,51.3 47.4,52 47.2,52.4 47.1,52.6 47,52.8 47,52.9 47.2,53.1 		"/>
		<line class="st0" x1="65.3" y1="63" x2="65.3" y2="63"/>
		<line class="st0" x1="65.7" y1="62.9" x2="65.3" y2="63"/>
		<line class="st0" x1="85.2" y1="40.4" x2="85.2" y2="40.4"/>
		<line class="st0" x1="53.7" y1="13.3" x2="53.7" y2="13.3"/>
		<line class="st0" x1="42.7" y1="24.7" x2="42.7" y2="24.7"/>
		<line class="st0" x1="47.3" y1="86.5" x2="47.6" y2="87.4"/>
		<line class="st0" x1="75.1" y1="78.2" x2="75.7" y2="78.6"/>
		<polygon class="st0" points="91.2,33.8 91.2,34.1 91.1,34.4 91.2,34.1 		"/>
		<line class="st0" x1="34" y1="72.4" x2="34" y2="72.3"/>
		<line class="st0" x1="34" y1="72.4" x2="34.7" y2="71.9"/>
		<polyline class="st0" points="46.6,51.9 46.4,51.6 46.6,51.9 		"/>
		<polyline class="st0" points="46.6,51.9 46.7,52 46.8,52.2 46.6,51.9 		"/>
		<polyline class="st0" points="70,15.2 70.7,14.9 70.6,15 		"/>
		<line class="st0" x1="90.9" y1="27.1" x2="91" y2="27.4"/>
		<polygon class="st0" points="37.9,78.1 38.4,78.2 38.2,78.1 		"/>
		<line class="st0" x1="39" y1="78.3" x2="38.3" y2="78.2"/>
		<polyline class="st0" points="80.2,46.2 80.4,46.2 80.6,46.1 80.8,46 81,45.7 81.2,45.5 81.3,45.3 81.4,45.1 81.5,44.8 81.6,44.4 
			81.7,43.9 81.7,43.6 81.6,43 81.6,42.5 81.4,42.1 81.3,41.8 		"/>
		<polyline class="st0" points="89.9,33.6 89.9,33.2 89.9,32.8 89.9,32.6 89.8,32.4 89.8,32.2 89.7,32 89.4,31.8 89.2,31.6 89,31.5 
					"/>
		<polyline class="st0" points="30.8,75 30.8,74.8 31,74.5 31.2,74.2 31.7,73.7 32.2,73.3 		"/>
		<line class="st0" x1="85" y1="43" x2="85" y2="43"/>
		<polyline class="st0" points="46.6,18.7 46,19.2 45.5,19.6 		"/>
		<polyline class="st0" points="42.9,25.5 42.7,25.6 42.4,25.8 		"/>
		<polyline class="st0" points="46.5,18.4 46.1,18.8 46,18.9 		"/>
		<line class="st0" x1="81.2" y1="46.1" x2="81.3" y2="46.5"/>
		<polyline class="st0" points="81.3,46.4 81.2,46.4 81.5,46.9 		"/>
		<polyline class="st0" points="49.1,42.7 49.2,43.2 49.3,43.5 		"/>
		<polyline class="st0" points="49.2,43 49.2,43.2 49,42.3 49,42.4 		"/>
		<polyline class="st0" points="83.9,19 83.6,18.8 83.6,18.8 		"/>
		<line class="st0" x1="90.1" y1="26.6" x2="89.7" y2="26.2"/>
		<line class="st0" x1="90.1" y1="26.6" x2="90" y2="26.5"/>
		<polyline class="st0" points="91.4,28.4 91.4,28.6 91.4,28.7 		"/>
		<polyline class="st0" points="91.2,28 91,27.7 90.6,27.4 		"/>
		<line class="st0" x1="91.2" y1="28" x2="90.9" y2="27.5"/>
		<line class="st0" x1="73.2" y1="12.9" x2="74.6" y2="13.1"/>
		<polyline class="st0" points="58.2,10.4 58.5,10.5 58.9,10.6 		"/>
		<polyline class="st0" points="62.9,13.2 63.9,12.8 64.8,12.4 		"/>
		<line class="st0" x1="84.7" y1="39.1" x2="84.6" y2="39.3"/>
		<polyline class="st0" points="84.6,39.3 84.6,39.1 84.6,39.1 		"/>
		<line class="st0" x1="50.7" y1="16.2" x2="50.5" y2="16.5"/>
		<polyline class="st0" points="67.2,10.7 66.9,10.8 67,10.8 		"/>
		<polyline class="st0" points="90.9,29.8 90.7,30.2 90.3,30.6 90,30.9 89.6,31.3 89.4,31.4 89.2,31.7 		"/>
		<polyline class="st0" points="74.9,58.7 75.5,58.2 75.8,57.9 		"/>
		<line class="st0" x1="72.4" y1="76" x2="72.4" y2="76.6"/>
		<polyline class="st0" points="76.8,57 76.7,57.1 76.6,57.1 76.1,57.4 75.9,57.6 		"/>
		<polyline class="st0" points="53.3,79.2 52.2,79.2 53.3,79.2 		"/>
		<line class="st0" x1="89.9" y1="33.8" x2="89.9" y2="34"/>
		<line class="st0" x1="84.5" y1="17.9" x2="83.5" y2="17.3"/>
		<line class="st0" x1="47.5" y1="87.7" x2="47.2" y2="86.7"/>
		<polyline class="st0" points="72,76.3 71.5,76 71.5,76 		"/>
		<polyline class="st0" points="77.3,13.4 77.9,13.6 78.4,13.8 78.8,14 79.3,14.3 		"/>
		<polyline class="st0" points="49.2,60.9 49.1,60.4 49.1,60.1 49,59.6 49,59 48.9,58.4 		"/>
		<polyline class="st0" points="76,54.4 76.2,54.3 76.4,54.1 76.7,53.7 77,53.3 77.3,52.9 		"/>
		<line class="st0" x1="46.6" y1="18.3" x2="46" y2="18.8"/>
		<polyline class="st0" points="46.8,24.9 46.9,24.4 46.9,24.4 		"/>
		<polyline class="st0" points="37.3,77.9 37.2,77.9 37.2,77.9 		"/>
		<polyline class="st0" points="76.1,57 76.1,57.1 76.1,57 		"/>
		<polyline class="st0" points="67.5,47.7 66.8,47.9 66.4,48.1 66.3,48.2 65.9,48.5 65.9,48.6 		"/>
		<polyline class="st0" points="86.1,39 86.7,39.1 87.1,39.3 87.6,39.4 		"/>
		<polyline class="st0" points="41.8,23.5 41.7,23.8 41.5,24.2 41.6,24.1 		"/>
		<line class="st0" x1="80.5" y1="49.6" x2="80.5" y2="49.6"/>
		<line class="st0" x1="87.7" y1="24.9" x2="87.8" y2="25.2"/>
		<line class="st0" x1="87.7" y1="24.8" x2="87.7" y2="24.9"/>
		<line class="st0" x1="87.7" y1="24.9" x2="87.7" y2="24.8"/>
		<line class="st0" x1="70.8" y1="74.8" x2="71.1" y2="75.4"/>
		<polyline class="st0" points="40.2,32.4 40.4,32.8 40.5,33 40.6,33.1 		"/>
		<polyline class="st0" points="44.2,31.9 44,32.3 43.5,32.9 43.3,33.2 42.8,33.7 42.2,34.2 		"/>
		<polyline class="st0" points="41.7,38.9 41.7,39 41.9,39.7 42.2,40.2 42.4,40.6 		"/>
		<polyline class="st0" points="50.5,16.5 50.3,16.7 49.8,17 49.3,17.3 48.8,17.5 48.3,17.8 47.8,18 		"/>
		<polyline class="st0" points="41.8,23.5 41.8,23.5 41.8,24.1 		"/>
		<polyline class="st0" points="52.4,63.9 52.4,63.4 52.3,62.7 		"/>
		<line class="st0" x1="43.6" y1="29.7" x2="43.8" y2="28.6"/>
		<polyline class="st0" points="79.8,48.8 79.8,48.4 79.8,47.9 79.6,47.4 79.5,46.8 79.5,46.7 79.4,46.5 		"/>
		<line class="st0" x1="65.4" y1="62.9" x2="65.2" y2="63.1"/>
		<polyline class="st0" points="83.8,41.8 83.6,42.1 83.4,42.1 83.3,42.2 83,42.4 82.7,42.4 82.4,42.7 82.2,42.9 81.8,43.1 
			81.7,43.1 81.6,43 		"/>
		<polyline class="st0" points="68.2,100.5 68.8,100.5 69.2,100.5 69.2,100.5 		"/>
		<line class="st0" x1="90.1" y1="33.2" x2="90" y2="33.1"/>
		<line class="st0" x1="90" y1="33.2" x2="90" y2="33.2"/>
		<line class="st0" x1="90.7" y1="31.3" x2="90.5" y2="31.3"/>
		<polyline class="st0" points="75.7,78.6 76.2,78.9 75.7,78.6 		"/>
		<polyline class="st0" points="75.7,55.7 75.7,55.8 75.7,56 		"/>
		<line class="st0" x1="82.6" y1="17.3" x2="83.4" y2="17.9"/>
		<line class="st0" x1="81.7" y1="47.4" x2="81.5" y2="46.9"/>
		<polyline class="st0" points="78.5,54.7 78.3,54.7 78.2,54.7 78,54.7 		"/>
		<polyline class="st0" points="63.5,12.6 62.4,12.3 62,12.3 60.9,12.2 60.5,12.3 60.2,12.4 59.8,12.5 		"/>
		<polyline class="st0" points="81.6,46.2 82,46.4 82.5,46.4 82.7,46.3 82.9,46.1 		"/>
		<polyline class="st0" points="81.1,41.9 81.3,41.8 81.5,41.6 81.7,41.6 81.7,41.6 		"/>
		<polyline class="st0" points="70.7,60.8 71.1,60.5 71.2,60.5 71.6,60.2 71.9,59.7 72.2,59.3 72.5,58.9 72.7,58.4 72.9,58 
			72.9,57.5 		"/>
		<polyline class="st0" points="80.3,46.2 80.1,46.3 80,46.3 79.8,46.4 79.5,46.5 79.4,46.5 		"/>
		<polyline class="st0" points="80.2,46.2 80.1,46.2 79.8,46.2 79.9,46.2 		"/>
		<line class="st0" x1="38.6" y1="78.2" x2="38.4" y2="78.2"/>
		<line class="st0" x1="62.6" y1="12.2" x2="63.1" y2="12.4"/>
		<polyline class="st0" points="45.3,20 45,20.4 44.5,20.9 44.2,21.3 		"/>
		<polyline class="st0" points="45.9,50.6 46,50.9 46.1,51.2 46.4,51.6 		"/>
		<line class="st0" x1="40.6" y1="33.2" x2="40.6" y2="32.9"/>
		<polyline class="st0" points="44.6,18 44.5,18.1 44.3,18.4 44.1,18.9 44,19.2 43.9,19.7 		"/>
		<polyline class="st0" points="46.4,16.7 46.1,16.8 45.7,17 45.3,17.3 44.9,17.6 44.6,18 		"/>
		<polyline class="st0" points="48.5,16.1 47.4,16.3 46.9,16.5 46.5,16.6 46.4,16.7 		"/>
		<polyline class="st0" points="49.9,15.7 50.5,15.3 50.5,15.3 		"/>
		<polygon class="st0" points="85.3,41.7 85.3,41.8 85.3,41 		"/>
		<line class="st0" x1="53" y1="65.4" x2="53" y2="65.1"/>
		<polyline class="st0" points="81.4,46.2 81.4,46.7 81.4,46.8 		"/>
		<polyline class="st0" points="48.4,78.7 48.1,78.6 48.7,78.7 49.8,78.9 		"/>
		<line class="st0" x1="80.6" y1="15.4" x2="80.1" y2="14.9"/>
		<polyline class="st0" points="80.8,15.7 80.6,15.4 81.1,16.1 81.3,16.5 		"/>
		<polyline class="st0" points="45.4,66.7 45.8,66.2 45.4,66.7 45,67.1 		"/>
		<polyline class="st0" points="54.1,62.1 54.1,62 53.9,61.9 54.1,62 		"/>
		<line class="st0" x1="54.1" y1="62" x2="54.1" y2="62"/>
		<polyline class="st0" points="42.7,23.9 42.9,23.4 43,23 43.3,22.4 43.5,22.1 44,21.5 44.3,21.2 45.3,20.5 46,19.9 		"/>
		<polyline class="st0" points="75.7,64.8 75.6,65.6 75.3,66.7 75.2,67.1 		"/>
		<polyline class="st0" points="88.5,30.8 88.8,30.5 89,30.2 89.1,30 89.1,30 89.1,29.6 		"/>
		<polyline class="st0" points="80.4,49.4 80.4,49.3 80.5,49.6 80.6,49.8 80.5,49.6 		"/>
		<polyline class="st0" points="80.8,50.8 80.8,50.7 80.8,50.7 80.5,49.9 80.3,49.5 		"/>
		<polyline class="st0" points="79.6,28.4 80.1,28.6 80.6,28.7 		"/>
		<polyline class="st0" points="54.8,79.4 55,79.4 54.2,79.3 		"/>
		<polygon class="st0" points="46,43.4 46.2,43.9 46.2,44 		"/>
		<line class="st0" x1="46" y1="43.3" x2="46" y2="43.4"/>
		<line class="st0" x1="69.4" y1="15.4" x2="70" y2="15.2"/>
		<polyline class="st0" points="65.7,16.3 66.5,15.9 67,15.7 67.3,15.6 67.8,15.6 68.3,15.5 69.4,15.4 		"/>
		<line class="st0" x1="48.8" y1="58.6" x2="49" y2="58.7"/>
		<polyline class="st0" points="48.8,58.6 48.5,58.2 48.3,58 48.3,57.8 48.1,57.6 		"/>
		<polyline class="st0" points="48.8,58.6 48.9,58.6 48.9,58.6 		"/>
		<polyline class="st0" points="67.3,11.7 66.8,11.8 66.3,11.9 65.5,12.2 		"/>
		<polyline class="st0" points="70.5,11.7 69.9,11.5 69.5,11.4 		"/>
		<polyline class="st0" points="75.9,57.6 76,57.2 76.1,57 		"/>
		<line class="st0" x1="62.7" y1="11.1" x2="63" y2="10.9"/>
		<line class="st0" x1="46.6" y1="18.7" x2="47.8" y2="18"/>
		<polygon class="st0" points="53.3,13.5 53,13.9 53.1,13.8 		"/>
		<polygon class="st0" points="33,72.8 32.2,73.3 33,72.8 33.5,72.6 		"/>
		<line class="st0" x1="33.5" y1="72.6" x2="34" y2="72.3"/>
		<line class="st0" x1="60.4" y1="11" x2="60.5" y2="11"/>
		<line class="st0" x1="65.3" y1="63" x2="65.6" y2="62.7"/>
		<polyline class="st0" points="65.3,63 65.1,63.3 65,63.5 		"/>
		<line class="st0" x1="45" y1="78.9" x2="44.8" y2="78.5"/>
		<polyline class="st0" points="45.7,81.6 45.3,80.3 45,78.9 		"/>
		<polyline class="st0" points="45.9,82.4 45.7,81.6 45.7,81.6 		"/>
		<line class="st0" x1="47.7" y1="100.5" x2="47.7" y2="100.5"/>
		<polyline class="st0" points="47.6,99.7 47.6,100.4 47.7,100.5 		"/>
		<line class="st0" x1="91" y1="27.6" x2="91.1" y2="27.7"/>
		<line class="st0" x1="48.6" y1="44.3" x2="48.5" y2="44.7"/>
		<polyline class="st0" points="48.5,44.7 48.5,44.6 48.6,44.1 		"/>
		<polyline class="st0" points="75.8,17 75.3,17.2 74.2,17.4 		"/>
		<polyline class="st0" points="82.2,17.9 81.7,17.4 81.6,17.3 		"/>
		<polyline class="st0" points="82.2,17.9 82.5,18.1 83.6,18.8 		"/>
		<line class="st0" x1="50.4" y1="15.4" x2="50.5" y2="15.3"/>
		<polyline class="st0" points="42.6,21.5 43.3,20.9 43.2,21 		"/>
		<polyline class="st0" points="43.2,21 43.4,20.6 43.6,20.5 		"/>
		<polygon class="st0" points="76.8,13.4 76.3,13.3 77.3,13.4 		"/>
		<polyline class="st0" points="76.9,56.9 77.1,56.8 77.2,56.7 77.3,56.6 77.6,55.6 77.8,55.2 		"/>
		<polyline class="st0" points="59,13.1 59.1,13 58.6,13.6 58.6,13.6 		"/>
		<polyline class="st0" points="59.1,80.3 60.5,80.6 62.5,81.1 63.8,81.3 65.4,81.6 67.8,82 68.9,82.3 70.2,82.6 		"/>
		<polyline class="st0" points="61.9,11 61.9,11 61.6,10.9 		"/>
		<polyline class="st0" points="37.2,79.7 36.6,79.6 36.2,79.5 35.9,79.4 35.5,79.3 35,79 34.6,78.8 34.3,78.6 		"/>
		<line class="st0" x1="37.3" y1="79.7" x2="37.2" y2="79.7"/>
		<polyline class="st0" points="88.7,31.5 89.1,31.5 89.2,31.6 		"/>
		<polyline class="st0" points="87.7,24.8 87.8,24.2 87.7,25 		"/>
		<line class="st0" x1="42.1" y1="39.4" x2="41.9" y2="39.2"/>
		<polyline class="st0" points="56.3,11.3 56.4,11.2 56.3,11.3 		"/>
		<polyline class="st0" points="87.3,34.8 87.4,35.2 87.3,35.5 87.3,35.8 87.2,36.4 86.9,37.2 86.6,37.7 86.3,38 86,38.4 85.6,38.8 
			85.1,39 84.6,39.1 		"/>
		<polyline class="st0" points="84.6,39.3 84.7,39.5 84.7,39.7 		"/>
		<line class="st0" x1="80.3" y1="48.8" x2="80" y2="48.5"/>
		<polyline class="st0" points="41.5,34.5 41.5,34.4 41.6,34.2 41.6,34 		"/>
		<polyline class="st0" points="41.4,35.1 41.4,34.7 41.5,34.5 		"/>
		<polyline class="st0" points="69.2,62 69.5,62 69.8,62.1 70.1,62.1 70.4,62.1 		"/>
		<line class="st0" x1="87.7" y1="24.8" x2="87.7" y2="24.9"/>
		<line class="st0" x1="83.6" y1="18.8" x2="83.6" y2="18.8"/>
		<line class="st0" x1="69.4" y1="11.4" x2="69.3" y2="11.4"/>
		<line class="st0" x1="69.3" y1="11.4" x2="69.3" y2="11.4"/>
		<polyline class="st0" points="86.1,39 86,39 86.1,39 		"/>
		<polyline class="st0" points="87.1,39.7 87.1,39.7 86.6,40.1 86.2,40.2 86.1,40.3 85.6,40.4 85.4,40.4 85.2,40.4 		"/>
		<polyline class="st0" points="42.8,20.3 42.7,21 42.6,21.5 		"/>
		<polyline class="st0" points="64.4,59.9 65.1,59.8 65.4,59.8 65.5,59.7 65.8,59.6 		"/>
		<polyline class="st0" points="53.3,61 53.2,60.7 53.1,60.5 		"/>
		<polyline class="st0" points="63.9,63.5 63.8,63.8 63.5,64.4 63.4,64.5 63,65.1 		"/>
		<polyline class="st0" points="41.9,69.5 41.5,69.5 41.3,69.5 41,69.4 40.9,69.4 		"/>
		<polyline class="st0" points="90,33.2 89.9,32.5 89.7,31.6 89.6,31.3 		"/>
		<polyline class="st0" points="47.4,47.3 47.8,46.4 48,45.8 48.1,45.6 48.3,45.3 48.6,44.9 		"/>
		<polyline class="st0" points="74.3,13.3 74,13.2 75.6,13.5 		"/>
		<line class="st0" x1="46.3" y1="83.9" x2="45.9" y2="82.4"/>
		<polyline class="st0" points="44.6,18 44.2,18.3 44.6,18 		"/>
		<line class="st0" x1="49.2" y1="42.9" x2="49.2" y2="42.9"/>
		<polyline class="st0" points="87.9,25.3 88,25.4 87.6,25 		"/>
		<polyline class="st0" points="90,33.2 90,33.2 90.2,33.9 		"/>
		<polyline class="st0" points="54.4,12.8 54.8,12.6 55.5,12.4 55.9,12.2 56.2,12.1 56.6,12.1 57,12.1 57.5,12 58,12 58.6,12 
			59.1,12 59.5,12.1 		"/>
		<polyline class="st0" points="53.7,13.3 53.6,13.4 54.1,13 54.4,12.8 		"/>
		<polyline class="st0" points="47.6,45.7 47.9,45.4 48.2,45 48.1,45.2 		"/>
		<polyline class="st0" points="86.3,29.6 86.2,29.4 86.2,29.1 86,28.5 		"/>
		<line class="st0" x1="86.3" y1="29.6" x2="86" y2="28.9"/>
		<polyline class="st0" points="84.1,19.2 83.8,19 84.1,19.2 84.3,19.3 84.1,19.2 		"/>
		<polyline class="st0" points="84.3,19.3 84.7,19.6 85.4,20.3 85.8,20.7 86.5,21.4 86.7,21.6 87.2,22.2 87.5,22.5 		"/>
		<polyline class="st0" points="66.8,100.5 67.2,100.5 66.7,100.5 		"/>
		<polyline class="st0" points="63.1,12.4 63.8,12.5 63.2,12.4 		"/>
		<polyline class="st0" points="48.2,57.7 47.9,57.4 47.9,57.3 		"/>
		<polyline class="st0" points="48.4,57.9 48.4,57.9 48.2,57.7 		"/>
		<polyline class="st0" points="51.2,19.1 51.7,18.8 52.2,18.4 51.6,18.8 		"/>
		<polyline class="st0" points="50.5,19.6 50.9,19.3 51.2,19.1 		"/>
		<line class="st0" x1="44.8" y1="38" x2="44.9" y2="38.3"/>
		<polyline class="st0" points="73.5,58.6 73.5,58.6 73.4,58.8 		"/>
		<polyline class="st0" points="49.7,87.8 49.6,85.5 49.6,83.8 49.7,82.2 49.7,80.2 49.5,79.5 		"/>
		<line class="st0" x1="71.1" y1="75.5" x2="71.5" y2="76"/>
		<polyline class="st0" points="79.6,54 79.5,54.1 79.3,54.2 79.1,54.4 		"/>
		<line class="st0" x1="41.9" y1="69.5" x2="40.9" y2="70.1"/>
		<line class="st0" x1="61.9" y1="11" x2="61.8" y2="11"/>
		<polyline class="st0" points="63,10.9 62.3,11 61.9,11 		"/>
		<polyline class="st0" points="52.7,14.7 52.8,14.2 52.9,14.1 53,13.9 		"/>
		<polyline class="st0" points="56.3,11.3 56.1,11.3 55.6,11.4 55.3,11.4 55,11.5 54.5,11.6 53.9,11.8 		"/>
		<polyline class="st0" points="60.5,11.3 59.5,11.2 58.3,11.2 57.4,11.2 56.7,11.3 56.3,11.3 		"/>
		<polyline class="st0" points="40.8,26.9 40.8,26.8 41.2,26.5 41.7,26.1 42.2,25.9 42.5,25.8 		"/>
		<polyline class="st0" points="90.3,26.3 89.6,24.4 89.3,23.6 89.2,23.2 89,22.8 88.9,22.7 88.9,22.6 88.8,22.5 88.5,22.1 		"/>
		<line class="st0" x1="72.6" y1="76.8" x2="71.7" y2="76.2"/>
		<line class="st0" x1="72.6" y1="76.8" x2="72.6" y2="76.8"/>
		<polyline class="st0" points="75.7,64.8 75.9,63.8 76.1,62.8 76.2,61.5 76.4,60.1 76.5,59 76.6,58.8 		"/>
		<polyline class="st0" points="84.1,18.3 84.3,18.5 83.2,17.7 		"/>
		<polyline class="st0" points="82.4,17.1 81.8,16.6 82.6,17.3 82.6,17.3 		"/>
		<polyline class="st0" points="51.4,14.5 51.7,14 51.8,13.8 52.2,13.4 52.6,13 		"/>
		<line class="st0" x1="66.9" y1="10.8" x2="67.2" y2="10.7"/>
		<polyline class="st0" points="68.4,11.4 69.1,11.4 69.5,11.4 		"/>
		<polyline class="st0" points="50.5,15.9 50.6,15.4 50.8,14.9 51,14.4 51.1,14.2 51.2,14.1 51.3,13.8 51.5,13.5 51.7,13.3 
			51.8,13.1 		"/>
		<polyline class="st0" points="44.3,78.5 45.3,78.4 45.9,78.4 		"/>
		<line class="st0" x1="85.2" y1="40.4" x2="85.2" y2="40.4"/>
		<polyline class="st0" points="85.2,40 85.2,39.5 85,39.1 85.1,39 		"/>
		<line class="st0" x1="85.2" y1="40.4" x2="85.3" y2="40.6"/>
		<polyline class="st0" points="85.2,40 85.2,40 85.2,40.4 		"/>
		<line class="st0" x1="40.6" y1="33.2" x2="40.7" y2="33.4"/>
		<polyline class="st0" points="90.1,35.7 90.1,35.2 90.1,35.5 90,36.3 		"/>
		<line class="st0" x1="45.7" y1="42.6" x2="45.9" y2="42.6"/>
		<polyline class="st0" points="45.1,42.8 45.1,42.8 45.1,42.9 45.6,42.7 		"/>
		<polyline class="st0" points="43,25.5 43,25.8 43.1,26.2 43.3,26.5 43.5,26.7 		"/>
		<polyline class="st0" points="43.1,26.2 43.1,26.2 43.1,26.2 		"/>
		<line class="st0" x1="42.4" y1="34" x2="41.8" y2="34.3"/>
		<polyline class="st0" points="81,89.6 81,89.3 80.9,88.9 80.8,88.5 80.8,88 80.7,87.7 80.6,86.9 80.5,86.6 80.3,86.1 		"/>
		<polyline class="st0" points="39.1,70 39.1,70 38.8,70.1 		"/>
		<line class="st0" x1="38.7" y1="70.2" x2="38.2" y2="70.4"/>
		<polyline class="st0" points="38.7,70.2 38.8,70.1 38.7,70.2 		"/>
		<line class="st0" x1="38.7" y1="70.2" x2="38.6" y2="70.2"/>
		<line class="st0" x1="38.6" y1="70.2" x2="38.7" y2="70.2"/>
		<polyline class="st0" points="37.1,77.9 36.9,78 37.2,77.9 		"/>
		<polyline class="st0" points="64.7,100.5 60.8,100.5 57.2,100.5 		"/>
		<polyline class="st0" points="68.8,100.5 68.5,100.5 67.6,100.5 66.7,100.5 		"/>
		<polyline class="st0" points="69.2,100.5 69.8,100.5 69.6,100.5 69.3,100.5 		"/>
		<line class="st0" x1="74.3" y1="100.5" x2="74.3" y2="100.5"/>
		<polyline class="st0" points="78.2,51 77.9,51.2 77.4,51.4 77.1,51.6 		"/>
		<line class="st0" x1="45.9" y1="18.8" x2="46.3" y2="18.5"/>
		<polyline class="st0" points="45.9,18.8 45.6,19 45.9,18.8 		"/>
		<line class="st0" x1="47.7" y1="100.5" x2="47.7" y2="100.5"/>
		<polyline class="st0" points="53,65.3 53,65.3 52.9,65.9 		"/>
		<polyline class="st0" points="75.1,58.5 75.2,58.9 75.3,59.6 75.9,59 75.8,58.4 75.6,58.1 		"/>
		<line class="st0" x1="70.6" y1="15" x2="70.6" y2="15"/>
		<line class="st0" x1="43.6" y1="29.6" x2="43.6" y2="29.6"/>
		<line class="st0" x1="48.4" y1="57.9" x2="48.4" y2="57.9"/>
		<line class="st0" x1="90.7" y1="32.2" x2="91" y2="32.9"/>
		<line class="st0" x1="41.4" y1="26" x2="41.4" y2="26"/>
		<line class="st0" x1="70.8" y1="75.1" x2="70.9" y2="75.2"/>
		<line class="st0" x1="90.6" y1="31.4" x2="90.5" y2="31.5"/>
		<line class="st0" x1="84.3" y1="41.2" x2="83.8" y2="41.8"/>
		<line class="st0" x1="69.2" y1="100.5" x2="69.2" y2="100.5"/>
		<line class="st0" x1="78" y1="54.6" x2="78" y2="54.6"/>
		<line class="st0" x1="45.5" y1="19.6" x2="45.5" y2="19.6"/>
		<line class="st0" x1="77.4" y1="51.5" x2="77.4" y2="51.5"/>
		<line class="st0" x1="41.4" y1="26" x2="41" y2="26.4"/>
		<line class="st0" x1="79.1" y1="54.4" x2="78.9" y2="54.8"/>
		<line class="st0" x1="81" y1="50.6" x2="80.8" y2="50.8"/>
		<line class="st0" x1="39.1" y1="70" x2="39.1" y2="70"/>
		<line class="st0" x1="85" y1="43" x2="85.1" y2="42.8"/>
		<line class="st0" x1="45.5" y1="19.6" x2="45.5" y2="19.6"/>
		<line class="st0" x1="48.6" y1="44.3" x2="48.6" y2="44.3"/>
		<polyline class="st0" points="39.1,70 39.3,69.9 39.6,69.8 		"/>
		<line class="st0" x1="45.9" y1="18.8" x2="46" y2="18.8"/>
		<line class="st0" x1="67.8" y1="63.4" x2="68" y2="63.5"/>
		<polyline class="st0" points="90.6,31.4 90.6,31.4 90.6,31.7 90.7,32.1 90.9,32.5 		"/>
		<polyline class="st0" points="47.8,99.3 47.8,99.3 47.6,99.7 		"/>
		<line class="st0" x1="72.6" y1="76.8" x2="72.6" y2="76.8"/>
		<line class="st0" x1="50" y1="60.9" x2="50.1" y2="61.7"/>
		<line class="st0" x1="45.9" y1="42.6" x2="45.8" y2="42.6"/>
		<polyline class="st0" points="69,100.5 69.9,100.1 69.3,100.5 		"/>
		<polyline class="st0" points="57.5,11.4 58.5,11.2 59.5,11.2 59.5,11.2 		"/>
		<line class="st0" x1="45.2" y1="37.2" x2="44.9" y2="37.5"/>
		<polyline class="st0" points="72.6,76.7 72.7,76.8 73,76.9 73.4,77.2 		"/>
		<line class="st0" x1="37.5" y1="70.6" x2="37.3" y2="70.7"/>
		<line class="st0" x1="62.2" y1="12" x2="62.6" y2="12.2"/>
		<line class="st0" x1="76" y1="57.2" x2="76" y2="57.2"/>
		<line class="st0" x1="41.4" y1="26" x2="41.5" y2="25.8"/>
		<polyline class="st0" points="73,11.4 73.2,11.4 73.8,11.5 74.5,11.6 		"/>
		<line class="st0" x1="73.4" y1="77.2" x2="73.3" y2="77.2"/>
		<line class="st0" x1="90.4" y1="26.5" x2="90.9" y2="27.1"/>
		<line class="st0" x1="37.5" y1="70.6" x2="37" y2="70.8"/>
		<line class="st0" x1="73.4" y1="12.9" x2="73.7" y2="13"/>
		<line class="st0" x1="45.9" y1="78.4" x2="45.7" y2="78.4"/>
		<polyline class="st0" points="49.2,61.3 49.2,61.3 49.2,60.9 		"/>
		<line class="st0" x1="46.4" y1="65.3" x2="47.1" y2="64.3"/>
		<line class="st0" x1="64.4" y1="12.6" x2="64.2" y2="12.6"/>
		<polyline class="st0" points="44.3,67.8 43.9,68.2 43.4,68.6 42.6,69.2 		"/>
		<line class="st0" x1="69.3" y1="11.4" x2="69.3" y2="11.4"/>
		<line class="st0" x1="69.3" y1="11.4" x2="69.3" y2="11.4"/>
		<line class="st0" x1="76.1" y1="54.3" x2="76.1" y2="54.3"/>
		<line class="st0" x1="89.1" y1="29.1" x2="89.1" y2="29.5"/>
		<line class="st0" x1="46.3" y1="47" x2="46.6" y2="46.6"/>
		<line class="st0" x1="90.7" y1="31.3" x2="90.6" y2="31.3"/>
		<polyline class="st0" points="75.7,78.6 75.3,78.4 75.7,78.6 		"/>
		<line class="st0" x1="39" y1="29.4" x2="39.2" y2="28.8"/>
		<polyline class="st0" points="83.5,45.7 83.4,45.7 83.4,45.7 		"/>
		<line class="st0" x1="79.3" y1="14.3" x2="80.1" y2="14.9"/>
		<line class="st0" x1="44.3" y1="67.8" x2="44.2" y2="67.9"/>
		<polyline class="st0" points="73,11.4 72.8,11.3 72.2,11.1 71.7,10.9 71.2,10.7 70.7,10.6 70.1,10.4 69.5,10.4 68.8,10.4 		"/>
		<polyline class="st0" points="81.9,47 82.1,46.8 82.4,46.6 82.7,46.4 82.9,46.1 		"/>
		<line class="st0" x1="69.5" y1="11.4" x2="69.5" y2="11.4"/>
		<polyline class="st0" points="44.3,78.5 43.7,78.5 40.5,78.4 		"/>
		<line class="st0" x1="38.5" y1="80.2" x2="38.9" y2="80.5"/>
		<polyline class="st0" points="69.4,11.4 70.2,11.4 71.1,11.4 		"/>
		<line class="st0" x1="41" y1="26.4" x2="40.8" y2="26.9"/>
		<polyline class="st0" points="81,50.6 81,50.6 81.1,50.5 81.3,50.4 81.5,50.1 81.7,49.8 		"/>
		<polyline class="st0" points="66.7,100.5 66.3,100.5 65.5,100.5 		"/>
		<polyline class="st0" points="47.9,57.3 47.6,56.9 47.4,56.5 47.3,56.2 47.2,55.9 47.1,55 		"/>
		<polyline class="st0" points="73.4,58.8 73,59.6 72.6,60.2 72.3,60.6 71.9,61 71.8,61.2 71.5,61.5 71.2,61.7 		"/>
		<polyline class="st0" points="39.6,27.9 40.4,27.2 40.8,26.9 		"/>
		<line class="st0" x1="39.1" y1="70" x2="39.1" y2="70"/>
		<line class="st0" x1="38.6" y1="70.2" x2="38" y2="70.4"/>
		<line class="st0" x1="38.6" y1="70.2" x2="38.6" y2="70.2"/>
		<line class="st0" x1="37.2" y1="77.9" x2="37.2" y2="77.9"/>
		<line class="st0" x1="91.2" y1="28" x2="91.2" y2="28"/>
		<line class="st0" x1="46.3" y1="47" x2="45.8" y2="47.6"/>
		<line class="st0" x1="40.5" y1="78.4" x2="39.8" y2="78.4"/>
		<line class="st0" x1="45.5" y1="19.6" x2="45.2" y2="20"/>
		<polyline class="st0" points="49.7,87.8 49.7,87.8 49.7,90.5 49.7,87.4 		"/>
		<line class="st0" x1="39.1" y1="70" x2="39.1" y2="70"/>
		<line class="st0" x1="52.4" y1="63.2" x2="52.4" y2="63.1"/>
		<line class="st0" x1="46.7" y1="52.2" x2="46.7" y2="52.4"/>
		<polyline class="st0" points="49.2,61.3 49.2,61.4 49.3,61.7 		"/>
		<line class="st0" x1="43.6" y1="29.7" x2="43.6" y2="29.6"/>
		<line class="st0" x1="67.3" y1="100.5" x2="67.3" y2="100.5"/>
		<line class="st0" x1="90.1" y1="26.5" x2="90.1" y2="26.5"/>
		<line class="st0" x1="41.8" y1="23.6" x2="41.8" y2="23.7"/>
		<line class="st0" x1="90.9" y1="27.1" x2="91.2" y2="27.5"/>
		<line class="st0" x1="90.3" y1="26.3" x2="90.4" y2="26.5"/>
		<line class="st0" x1="46.8" y1="52.5" x2="46.8" y2="52.8"/>
		<line class="st0" x1="46" y1="42.7" x2="46" y2="43.3"/>
		<polygon class="st0" points="66.8,47.9 67.1,47.9 66.7,48 		"/>
		<polyline class="st0" points="48.4,43.8 48.5,43.9 48.6,44.2 		"/>
		<polygon class="st0" points="42.4,33.2 42,33.2 42.2,33.7 		"/>
		<polyline class="st0" points="87.6,39.3 87.9,39.3 88.3,39.2 		"/>
		<polygon class="st0" points="42,27.1 42.5,26.3 42,27.2 		"/>
		<line class="st0" x1="75.1" y1="67" x2="75.3" y2="66.7"/>
		<polyline class="st0" points="47.9,44.4 47.8,43.8 47.7,43.7 47.9,43.2 47.5,43.3 47.2,43.2 47.4,43.9 47,43.6 47.3,44.2 
			47.3,44.6 		"/>
		<polyline class="st0" points="48.4,43.8 48,43.6 47.9,44.4 		"/>
		<polyline class="st0" points="42.9,25.6 42.5,26 42.2,26.6 41.3,27.3 41,27.3 41.3,26.6 41.5,26.3 41.7,26.1 		"/>
		<polyline class="st0" points="56,11.5 56.7,11.5 56.1,11.6 56.1,12 55.6,11.6 55.4,12.1 54.9,11.8 54.3,12.6 53.8,12.2 53.1,12.6 
			52.5,13.2 52.2,13.4 		"/>
		<polyline class="st0" points="84.3,19.2 83.6,18.6 83.1,18.4 82.7,18.2 		"/>
		<polyline class="st0" points="63.2,60.7 63,60 63.2,60 63.7,59.9 64.2,59.7 64.3,59.4 64.2,59.1 64,58.9 64.5,58.3 64.3,57.5 
			64.5,57.3 64.4,56.7 64.2,56.4 64.7,56.8 65.3,56.8 65.2,56.6 65.4,56.3 64.6,55.9 64.7,54.7 65,54.9 64.8,54.5 65.6,54.8 
			65.2,54.2 65.8,54.6 66.2,54.8 66.4,54.9 66.9,55.3 66.8,54.9 66.4,54.5 66.2,54.2 66.4,54 66.3,53.4 66.4,53 66.3,51.9 66,51 
			66.4,51.6 66.2,50.5 66.6,50.3 67,51.2 67.6,50.5 67.6,50.2 68.2,49.7 68.3,48.9 67.2,49.7 67.4,49.3 67.7,48.7 68,48.2 
			68.4,47.8 68.6,47.2 68.7,47 68.3,46.5 67.7,46 68.3,45.8 67.1,45.8 66.8,45.5 67.2,45.4 66.9,45.3 		"/>
		<polyline class="st0" points="47.5,46.7 47,47.5 46.8,47.2 		"/>
		<polyline class="st0" points="81.4,46.7 81.9,46.8 81.9,46.5 82.4,46.5 82.5,46.4 		"/>
		<polyline class="st0" points="58.5,10.5 58,10.5 57.7,10.7 57.2,11 56.9,11.2 		"/>
		<polyline class="st0" points="87.6,39.3 87.4,39.1 87.1,39 87,38.8 86.5,38.6 86.5,38.3 86.3,38 		"/>
		<polyline class="st0" points="35.9,79.4 36.6,79.5 37.5,79.3 37.7,79.1 37.6,78.8 38.8,78.6 38.9,78.3 39,78.3 		"/>
		<polyline class="st0" points="60.2,11.3 60.3,11.3 59.6,11.1 59.7,11 		"/>
		<polyline class="st0" points="74.2,35.8 74.4,35 74.9,35.1 75.5,35.2 75.6,34.5 76,34.6 76,34.9 76.5,34 76.3,34.5 76.6,34.1 
			76.7,34.7 77.1,34 77.2,34.5 77.7,34.2 78,35.1 78.5,34.9 78.9,35.8 79.5,35 79.7,35.7 80.2,35.2 80.6,35.8 81.1,35 81.2,35.9 
			81.7,35 81.7,35.6 82,35.1 81.9,35.9 82.2,35.6 82.5,36.5 82.4,35.8 82.7,36.4 83,36.8 83.1,37 83.2,36.9 83.3,37.3 83.6,37.5 
			83.7,37.7 84.1,37.7 84.2,37.8 84.3,37.4 84.4,37.7 84.8,37.7 84.8,38 85.1,38.5 85.1,38.8 85.5,38.6 85.6,38.8 		"/>
		<polyline class="st0" points="51.4,14.5 51.3,14.7 51.3,14.9 51.7,14.8 52.2,14.6 52.7,14.5 52.8,14.4 		"/>
		<polyline class="st0" points="51,15.4 50.8,15.5 50.7,15.8 		"/>
		<polyline class="st0" points="45.4,66.7 45.7,66.5 45.3,67.2 45.4,67.3 45.2,68 45.9,67.9 45.7,67.6 46.5,67 47.4,67.1 47.5,67.6 
			48.7,66.3 49,66.6 49.4,66.9 49.8,66.2 50.3,66.4 50.7,66.9 51.8,67 52.2,67.6 52.9,67.4 53.1,67.6 53.5,67.5 54.4,67.4 
			54.5,67.6 54.8,67.6 55.2,67.7 55.7,67.7 56.1,67.7 56,67.6 56.3,67.6 56.6,67.6 56.9,67.4 57.7,67.2 58,67.4 57.4,67.7 
			57.7,67.7 58,67.8 58.1,67.7 58.6,67.7 59,67.7 59.2,67.5 59.5,67.4 59.8,67.3 60.1,67.1 60.3,67 60.5,66.5 		"/>
		<polyline class="st0" points="45.8,42.2 45.5,42 45.2,41.7 45.1,41.7 		"/>
		<polyline class="st0" points="50.1,16.8 49.9,16.6 49.2,17 49.1,16.9 48.2,17.5 47.5,18.2 		"/>
		<polyline class="st0" points="90.9,31.3 91.2,31.2 91.8,30.8 91.4,30.6 92,30.6 91.6,30.5 91.5,30.2 91.6,29.9 91.1,29.7 		"/>
		<line class="st0" x1="65.7" y1="48.7" x2="65.9" y2="48.6"/>
		<polyline class="st0" points="65.7,48.7 65.4,49.2 65.7,49.1 65.2,49.5 65.2,49.8 64.9,50.2 64.8,49.9 64.9,49.7 64.5,50.1 
			64.5,49.5 64.2,50.3 64.1,49.6 63.8,50.2 63.8,50.6 63.8,51.5 63.5,52.4 63.1,52.5 63.3,52.9 63,52.8 62.8,53.2 62.5,53.5 
			62.3,53.9 62.1,54.1 62.3,54.2 62.1,54.7 61.9,55 61.6,54.8 61.8,53.8 61.8,52.9 62.1,53.3 62,52.8 62.2,52.4 62.2,52.1 
			62.2,51.8 62.2,51.3 62.3,50.7 62.1,50.1 62.4,49.9 62,49.6 61.7,48.8 61.9,48.1 61.5,48.1 61.6,47.7 61.7,47.3 61.2,47 61,46.7 
			61.1,46.5 61.3,46.2 		"/>
		<polyline class="st0" points="88.9,23.9 88.8,23.9 88.9,23.5 88.8,23.1 88.9,23 88.6,23 88.7,23.4 88.3,23.1 88,22.4 87.6,22.1 
			87,21.8 87.7,22 		"/>
		<polyline class="st0" points="41.6,34.2 41.7,34.1 41.8,34.3 		"/>
		<polyline class="st0" points="76.1,79.1 76.8,79.5 76.9,79.7 77.5,79.9 77.6,80.1 78.2,80.4 78.6,81 79.1,81.2 79.2,81.6 
			79.4,81.9 79.5,82.4 79.6,82.7 79.4,84.2 79.7,84.4 79.5,84.9 79.6,85.5 79.7,86.5 79.9,86.8 79.7,87.5 79.9,88 80.1,88 
			80.2,88.9 80.2,89.9 80.4,90 80.4,90.8 80.1,92.4 79.9,93.3 79.9,94 79.8,94.8 79.8,95.8 80,94.4 		"/>
		<polyline class="st0" points="69.4,15.4 69.6,15.4 70,15.2 		"/>
		<polyline class="st0" points="72.1,65.6 72.3,66 72.3,66.4 72,67.3 71.9,66.7 71.6,67.3 71.5,67.6 71.6,68.3 71.2,68 71.1,68.5 
			70.5,69.3 70.1,69.9 70.1,70.3 69.7,70.2 69.8,70.8 69.6,71.2 69.2,70.6 69.3,71.5 68.9,71.2 69,71.8 68.5,71.7 68.6,72 
			68.1,71.7 68.6,72.5 69.1,73.3 68.2,72.7 68.4,73.2 68.6,73.6 68.6,74.2 68.4,74.4 68.4,74.7 69.3,75.4 70.1,75.9 70.3,76.1 
			71.6,76.8 71.2,77 73.3,77.9 74.1,78.1 75.1,78.8 76.1,79.1 		"/>
		<polyline class="st0" points="45.6,27 45.4,27.6 44.9,28 45.2,28 44.8,28.6 45,29 44.8,28.9 44.8,29.3 44.7,29.6 44.8,29.9 
			44.5,30.5 44.5,30.9 44.2,31.2 44,31.5 43.8,31.9 43.6,32.3 43.3,32.9 42.8,33.5 42.6,33.8 		"/>
		<polyline class="st0" points="77.4,56.3 77.5,56 77.4,56.3 77.3,56.4 		"/>
		<line class="st0" x1="81.8" y1="45" x2="82" y2="44.7"/>
		<polyline class="st0" points="35.6,71.6 35.2,71.8 35.7,71.5 		"/>
		<line class="st0" x1="77.3" y1="51.6" x2="77" y2="51.9"/>
		<line class="st0" x1="64.7" y1="100.5" x2="64.4" y2="100.5"/>
		<polyline class="st0" points="78.6,50.8 78.5,51 78.1,51.2 77.9,51.3 77.8,51.4 77.6,51.5 		"/>
		<polyline class="st0" points="62.6,46.3 62.4,46.3 62.2,46.2 		"/>
		<line class="st0" x1="86.2" y1="30.7" x2="86.1" y2="30.4"/>
		<line class="st0" x1="51.7" y1="28.8" x2="51.4" y2="29.4"/>
		<line class="st0" x1="37.3" y1="77.9" x2="37.8" y2="78"/>
		<line class="st0" x1="48.1" y1="78.6" x2="47.2" y2="78.5"/>
		<polyline class="st0" points="39.8,32.7 40,32.9 40,32.9 		"/>
		<polyline class="st0" points="80.5,49.3 80.5,49.1 80.5,49 		"/>
		<line class="st0" x1="48.9" y1="58.6" x2="48.8" y2="58.3"/>
		<line class="st0" x1="77.3" y1="56.6" x2="77.3" y2="56.4"/>
		<line class="st0" x1="91.2" y1="28.1" x2="91.1" y2="27.9"/>
		<polyline class="st0" points="51.8,13.1 51.7,13.2 51.3,13.5 		"/>
		<polyline class="st0" points="88.1,25.6 88.1,25.6 88,25.3 87.8,24.9 		"/>
		<polyline class="st0" points="88.2,37.7 88.1,37.1 88.2,37.7 		"/>
		<line class="st0" x1="48.3" y1="49.7" x2="48.3" y2="50.4"/>
		<line class="st0" x1="76" y1="57.2" x2="76" y2="57.2"/>
		<polyline class="st0" points="72.3,49.6 72.2,50.4 72.1,50.9 		"/>
		<polyline class="st0" points="48.1,33.2 48.2,33.4 48.2,33.5 		"/>
		<line class="st0" x1="52.7" y1="15.3" x2="52.7" y2="15.8"/>
		<line class="st0" x1="76.8" y1="52" x2="77.1" y2="51.6"/>
		<line class="st0" x1="44.8" y1="39.5" x2="44.6" y2="39"/>
		<polyline class="st0" points="72.6,76.7 72.8,75.8 73.2,74.8 73.5,73.5 73.8,72.6 		"/>
		<line class="st0" x1="74.4" y1="77.8" x2="73.8" y2="77.5"/>
		<polyline class="st0" points="34,72.4 34.4,72.1 34.6,72 		"/>
		<polyline class="st0" points="69.9,15.3 69.8,15 69.8,14.9 		"/>
		<line class="st0" x1="75.7" y1="55.8" x2="75.7" y2="55.8"/>
		<line class="st0" x1="75.6" y1="56.1" x2="75.7" y2="56"/>
		<line class="st0" x1="88.8" y1="31.5" x2="88.6" y2="31.4"/>
		<polyline class="st0" points="90.1,34.3 90,34 89.9,33.9 		"/>
		<polyline class="st0" points="89.3,25.8 89.7,26.2 89.7,26.2 		"/>
		<line class="st0" x1="43.7" y1="27" x2="43.8" y2="28.1"/>
		<polyline class="st0" points="50.2,16 49.6,16.4 49.2,16.7 		"/>
		<line class="st0" x1="91.2" y1="28" x2="91.2" y2="28"/>
		<line class="st0" x1="37.1" y1="71" x2="38.1" y2="70.5"/>
		<polyline class="st0" points="78.4,98.7 78.1,99 77.6,99.5 76.9,100.2 		"/>
		<polyline class="st0" points="55,79.4 55.7,79.6 56.1,79.7 		"/>
		<line class="st0" x1="40" y1="69.7" x2="39.8" y2="69.8"/>
		<line class="st0" x1="71.2" y1="75.7" x2="71.5" y2="76"/>
		<line class="st0" x1="50" y1="63.2" x2="50" y2="62.7"/>
		<polyline class="st0" points="53.3,13.5 53.7,13.2 54.1,12.9 54.6,12.7 54.8,12.6 		"/>
		<line class="st0" x1="86.3" y1="19.6" x2="85.1" y2="18.9"/>
		<line class="st0" x1="76.1" y1="57.1" x2="76" y2="57.2"/>
		<line class="st0" x1="74.5" y1="58.8" x2="73.9" y2="58.6"/>
		<polyline class="st0" points="91.1,29.6 91.3,29.4 91.3,29.2 91.4,29 91.4,28.6 		"/>
		<line class="st0" x1="45.1" y1="42.9" x2="44.7" y2="42.8"/>
		<polyline class="st0" points="48.4,62 48.5,61.7 48.9,60.9 		"/>
		<line class="st0" x1="86.8" y1="30.9" x2="87.2" y2="31"/>
		<polyline class="st0" points="50.7,59.2 50.8,59.4 50.9,59.8 		"/>
		<polyline class="st0" points="87.7,34.5 87.6,33.9 87.4,33.5 		"/>
		<polyline class="st0" points="48.7,59.6 48.7,59.7 48.8,59.9 49,60.1 49.1,60.1 		"/>
		<line class="st0" x1="81.4" y1="45.5" x2="81.3" y2="45.3"/>
		<line class="st0" x1="81.2" y1="46.1" x2="81.2" y2="46.3"/>
		<polyline class="st0" points="48,22.4 47.6,23 47.3,23.4 47.1,23.9 46.9,24.4 		"/>
		<polyline class="st0" points="70.1,60.8 69.8,60.8 69.5,60.8 		"/>
		<polyline class="st0" points="63.1,12.4 63.5,12.5 64.2,12.6 63.5,12.5 		"/>
		<line class="st0" x1="65.7" y1="16.3" x2="65.6" y2="16.4"/>
		<polyline class="st0" points="48.5,52.4 49,52 49.5,51.6 		"/>
		<line class="st0" x1="44.8" y1="20.5" x2="44.6" y2="20.8"/>
		<line class="st0" x1="44.8" y1="20.5" x2="44.9" y2="20.4"/>
		<polyline class="st0" points="88.7,31.6 88.8,31.6 89,31.6 89.1,31.7 89.3,32 89.4,32.2 89.6,32.6 89.6,33 		"/>
		<line class="st0" x1="50.8" y1="56.4" x2="50.7" y2="57.5"/>
		<polyline class="st0" points="63.6,46.9 63.1,46.6 62.9,46.5 		"/>
		<polyline class="st0" points="55.4,11.6 56,11.5 56,11.5 		"/>
		<line class="st0" x1="91.9" y1="30" x2="92.4" y2="29.5"/>
		<polyline class="st0" points="90.6,27.2 90.3,26.7 89.8,26.2 		"/>
		<polyline class="st0" points="48.6,44.1 48.6,43.5 48.7,43.2 		"/>
		<line class="st0" x1="51.2" y1="79.1" x2="52.2" y2="79.2"/>
		<line class="st0" x1="51.2" y1="79.1" x2="49.8" y2="78.9"/>
		<line class="st0" x1="62.4" y1="11" x2="62.8" y2="11"/>
		<polyline class="st0" points="76.3,13.3 75.8,13.2 74.6,13.1 		"/>
		<line class="st0" x1="53" y1="17.9" x2="52.2" y2="18.4"/>
		<polyline class="st0" points="59.1,13 59.3,12.9 59.8,12.5 		"/>
		<line class="st0" x1="63.3" y1="12.6" x2="64.1" y2="12.7"/>
		<line class="st0" x1="42.4" y1="39.7" x2="42.1" y2="39.4"/>
		<line class="st0" x1="86.9" y1="32.2" x2="87.2" y2="32.2"/>
		<polyline class="st0" points="84.7,39.7 84.5,40.6 84.5,40.7 84.3,41.2 		"/>
		<polyline class="st0" points="41.6,35.6 41.7,35.8 41.9,36 42.5,36.2 42.8,36.3 43.1,36.3 		"/>
		<line class="st0" x1="64.8" y1="17" x2="63.2" y2="15.5"/>
		<polyline class="st0" points="88.9,23.9 88.3,24.4 88.1,24.6 88.1,24.8 		"/>
		<line class="st0" x1="69.3" y1="11.4" x2="69.4" y2="11.4"/>
		<polyline class="st0" points="89.2,38.2 89,38.5 88.7,38.7 88.6,38.8 		"/>
		<polyline class="st0" points="46.5,18.4 47,18 47.3,17.8 48,17.4 		"/>
		<polyline class="st0" points="50.8,17.2 50.4,17.3 50.1,17.5 49.6,18 49.5,18.1 49.3,18.6 		"/>
		<line class="st0" x1="66.5" y1="11.9" x2="66.7" y2="11.8"/>
		<polyline class="st0" points="47.3,47.5 47.3,47.6 47.4,47.3 		"/>
		<line class="st0" x1="76.4" y1="48.2" x2="75.8" y2="48.2"/>
		<line class="st0" x1="74" y1="13.2" x2="73.3" y2="13.1"/>
		<line class="st0" x1="62.4" y1="100.5" x2="61.5" y2="100.5"/>
		<polyline class="st0" points="76.5,52.4 76.2,52.8 75.9,53.8 75.7,54.3 75.7,54.7 75.6,55.2 75.6,55.4 75.7,55.7 		"/>
		<line class="st0" x1="68.5" y1="82.2" x2="68.9" y2="82.3"/>
		<line class="st0" x1="68.9" y1="82.3" x2="69.8" y2="82.8"/>
		<polyline class="st0" points="86.3,29.6 86.3,29.6 86.2,30 86.1,30.3 86.1,30.4 		"/>
		<line class="st0" x1="65.8" y1="100.5" x2="65.5" y2="100.5"/>
		<line class="st0" x1="48.8" y1="59.7" x2="48.6" y2="59.4"/>
		<polyline class="st0" points="47.5,15.4 47.2,15.8 46.6,16.5 		"/>
		<line class="st0" x1="49.7" y1="91.5" x2="49.7" y2="87.8"/>
		<line class="st0" x1="76.6" y1="16.8" x2="76.2" y2="16.9"/>
		<polyline class="st0" points="45.6,19 45.1,19.3 44.6,19.6 44,20.2 		"/>
		<polyline class="st0" points="52.7,14.7 52.8,14.4 52.9,14.1 		"/>
		<line class="st0" x1="52.7" y1="15.3" x2="52.7" y2="14.7"/>
		<line class="st0" x1="49.7" y1="93.4" x2="49.7" y2="91.5"/>
		<line class="st0" x1="88.5" y1="22.1" x2="88.3" y2="21.9"/>
		<polyline class="st0" points="90.6,27.6 90.4,27.4 90.2,27.1 89.9,26.8 		"/>
		<polyline class="st0" points="66.4,10.9 66.6,10.8 66.9,10.8 		"/>
		<line class="st0" x1="67.6" y1="11.5" x2="68.4" y2="11.4"/>
		<line class="st0" x1="50.5" y1="16.1" x2="50.5" y2="15.9"/>
		<line class="st0" x1="88.5" y1="38.5" x2="88.4" y2="38.3"/>
		<line class="st0" x1="88.6" y1="38.6" x2="88.6" y2="38.6"/>
		<polyline class="st0" points="74.3,100.5 74.3,100.5 74.3,100.5 		"/>
		<polyline class="st0" points="46.1,82.9 46.5,84.8 46.9,85.8 47,86.3 		"/>
		<polyline class="st0" points="44.2,31.9 44.2,31.7 44.2,31.9 		"/>
		<line class="st0" x1="81.3" y1="16.5" x2="81.3" y2="16.5"/>
		<polyline class="st0" points="77.3,56.5 77.4,56.4 77.4,56.3 		"/>
		<polyline class="st0" points="77.7,55.3 78.1,54.8 78,54.7 		"/>
		<line class="st0" x1="85" y1="39" x2="85" y2="39.2"/>
		<line class="st0" x1="41" y1="26.4" x2="40.9" y2="26.7"/>
		<polyline class="st0" points="50.5,16.5 50.3,16.4 50.2,16.7 		"/>
		<line class="st0" x1="34.8" y1="71.8" x2="34.6" y2="72"/>
		<polyline class="st0" points="85.8,28.1 85.8,28.1 85.8,27.9 		"/>
		<line class="st0" x1="74.8" y1="69" x2="74.6" y2="69.7"/>
		<line class="st0" x1="41.4" y1="25" x2="41.4" y2="25.2"/>
		<line class="st0" x1="45.8" y1="42.3" x2="45.7" y2="42.4"/>
		<line class="st0" x1="45.9" y1="42.5" x2="45.9" y2="42.6"/>
		<line class="st0" x1="50.1" y1="62.6" x2="50.1" y2="62.4"/>
		<polyline class="st0" points="40.8,81.6 40.8,81.6 41,81.7 		"/>
		<line class="st0" x1="41.8" y1="25.5" x2="42.3" y2="24.9"/>
		<polyline class="st0" points="70.1,62.1 70.2,62.1 70.4,62.1 		"/>
		<line class="st0" x1="44.2" y1="42.4" x2="44.5" y2="42.8"/>
		<polyline class="st0" points="72.9,57.5 73,57.2 72.9,57.5 		"/>
		<line class="st0" x1="83.5" y1="42.1" x2="83.3" y2="42.5"/>
		<line class="st0" x1="59" y1="13.1" x2="59" y2="13.1"/>
		<line class="st0" x1="79.7" y1="82.2" x2="79.8" y2="83"/>
		<line class="st0" x1="81.3" y1="16.5" x2="81.3" y2="16.5"/>
		<line class="st0" x1="46.2" y1="85.3" x2="46.3" y2="85.6"/>
		<polyline class="st0" points="86.1,29 85.9,28.6 86,28.9 		"/>
		<polyline class="st0" points="86,28.3 85.9,28.1 85.8,27.7 		"/>
		<line class="st0" x1="75.9" y1="57.5" x2="75.9" y2="57.5"/>
		<line class="st0" x1="44.8" y1="78.5" x2="44.8" y2="78.5"/>
		<line class="st0" x1="37.3" y1="77.9" x2="37.1" y2="77.9"/>
		<line class="st0" x1="91.2" y1="28" x2="91.2" y2="27.9"/>
		<polyline class="st0" points="48,17.4 48.6,17 49,16.8 		"/>
		<polyline class="st0" points="91.2,27.5 91.3,27.6 91.7,27.8 92,27.9 		"/>
		<line class="st0" x1="85.2" y1="42.5" x2="85" y2="43"/>
		<line class="st0" x1="51.1" y1="13.7" x2="51.3" y2="13.5"/>
		<line class="st0" x1="51.3" y1="13.5" x2="51.5" y2="13.4"/>
		<line class="st0" x1="45.5" y1="19.6" x2="45.5" y2="19.6"/>
		<line class="st0" x1="46" y1="18.8" x2="46" y2="18.8"/>
		<polyline class="st0" points="67.3,53.5 67.4,53.3 67.3,53.5 		"/>
		<line class="st0" x1="81" y1="89.6" x2="80.9" y2="90.1"/>
		<polyline class="st0" points="43.6,20.5 44,20.2 44,20.2 		"/>
		<line class="st0" x1="76.1" y1="57.1" x2="76.1" y2="57.1"/>
		<line class="st0" x1="89.7" y1="33.2" x2="89.7" y2="33.2"/>
		<line class="st0" x1="89.8" y1="33.3" x2="89.8" y2="33.3"/>
		<polyline class="st0" points="48.6,14.6 48.9,14.5 49.1,14.4 		"/>
		<line class="st0" x1="48.6" y1="44.5" x2="48.6" y2="44.5"/>
		<line class="st0" x1="48.5" y1="44.4" x2="48.5" y2="44.4"/>
		<line class="st0" x1="45" y1="20.4" x2="45" y2="20.4"/>
		<line class="st0" x1="87.7" y1="24.9" x2="87.7" y2="24.9"/>
		<line class="st0" x1="80.3" y1="86.1" x2="80.2" y2="85.6"/>
		<line class="st0" x1="85.4" y1="38.9" x2="85.6" y2="38.8"/>
		<line class="st0" x1="47.5" y1="47" x2="47.6" y2="46.9"/>
		<line class="st0" x1="45.1" y1="40.8" x2="45.1" y2="40.8"/>
		<line class="st0" x1="81.2" y1="46.2" x2="81.2" y2="46.2"/>
		<line class="st0" x1="86.1" y1="28.7" x2="86.1" y2="28.5"/>
		<polyline class="st0" points="48.5,16.1 49.5,15.7 49.5,15.7 		"/>
		<line class="st0" x1="47" y1="53.7" x2="47" y2="53.9"/>
		<line class="st0" x1="90.7" y1="31.3" x2="90.6" y2="31.4"/>
		<line class="st0" x1="49.8" y1="14.1" x2="49.1" y2="14.4"/>
		<line class="st0" x1="82.9" y1="18.4" x2="82.9" y2="18.3"/>
		<line class="st0" x1="69.2" y1="11.4" x2="69" y2="11.3"/>
		<line class="st0" x1="85.2" y1="40" x2="85.2" y2="40"/>
		<line class="st0" x1="85.2" y1="40" x2="85.2" y2="40"/>
		<line class="st0" x1="45.5" y1="84.3" x2="45.5" y2="84.3"/>
		<line class="st0" x1="46.2" y1="85.3" x2="46.2" y2="85.4"/>
		<polyline class="st0" points="47.6,99.7 47.8,99.5 47.8,99.3 		"/>
		<line class="st0" x1="80.2" y1="46.2" x2="80.2" y2="46.2"/>
		<line class="st0" x1="59" y1="13.1" x2="59" y2="13.1"/>
		<line class="st0" x1="42.7" y1="24.7" x2="42.7" y2="24.7"/>
		<line class="st0" x1="75.1" y1="78.2" x2="74.8" y2="78"/>
		<line class="st0" x1="48.8" y1="58.6" x2="48.8" y2="58.6"/>
		<polyline class="st0" points="46.8,89.6 46.8,90 46.8,90.1 46.8,90.4 		"/>
		<line class="st0" x1="38.3" y1="78.2" x2="38.2" y2="78.1"/>
		<line class="st0" x1="42.4" y1="40.6" x2="42.8" y2="41"/>
		<line class="st0" x1="48.2" y1="45.1" x2="48.2" y2="45.1"/>
		<line class="st0" x1="48" y1="45.3" x2="48" y2="45.3"/>
		<line class="st0" x1="71.2" y1="61.7" x2="70.7" y2="62"/>
		<polyline class="st0" points="81.8,49.3 81.8,49.2 81.9,49 		"/>
		<line class="st0" x1="74.4" y1="70.3" x2="74.6" y2="69.7"/>
		<line class="st0" x1="74.4" y1="70.3" x2="74.1" y2="71.5"/>
		<polyline class="st0" points="68,45.2 68,45.2 68.3,45.2 		"/>
		<line class="st0" x1="30.7" y1="75.7" x2="30.7" y2="75.6"/>
		<line class="st0" x1="64.4" y1="59.9" x2="64.4" y2="59.9"/>
		<line class="st0" x1="64.4" y1="59.9" x2="64.4" y2="59.9"/>
		<polyline class="st0" points="40.7,33.4 40.6,33.4 40.4,33.2 40,32.9 		"/>
		<line class="st0" x1="45.8" y1="42.6" x2="45.8" y2="42.6"/>
		<line class="st0" x1="45.8" y1="42.6" x2="45.8" y2="42.6"/>
		<line class="st0" x1="45.8" y1="42.6" x2="45.8" y2="42.6"/>
		<line class="st0" x1="41.8" y1="22.6" x2="41.7" y2="23.1"/>
		<line class="st0" x1="88.6" y1="26.1" x2="88.5" y2="26.3"/>
		<line class="st0" x1="42.9" y1="25.6" x2="42.9" y2="25.6"/>
		<line class="st0" x1="69.2" y1="100.5" x2="69.2" y2="100.5"/>
		<line class="st0" x1="79.8" y1="48.6" x2="79.9" y2="48.8"/>
		<line class="st0" x1="58.2" y1="10.4" x2="57.5" y2="10.6"/>
		<polyline class="st0" points="64.8,10.6 65.8,10.6 65.8,10.6 		"/>
		<line class="st0" x1="38.9" y1="29.8" x2="38.9" y2="30.5"/>
		<line class="st0" x1="79.5" y1="97.3" x2="79.2" y2="97.8"/>
		<polyline class="st0" points="72.4,76.5 72.4,76.4 72.5,75.8 		"/>
		<polyline class="st0" points="53.5,79.2 54,79.3 54.3,79.3 		"/>
		<polyline class="st0" points="46.3,78.4 46.3,78.4 45.9,78.4 		"/>
		<line class="st0" x1="45.7" y1="78.4" x2="45.3" y2="78.4"/>
		<line class="st0" x1="89.9" y1="33.8" x2="89.9" y2="33.6"/>
		<line class="st0" x1="44.3" y1="38.8" x2="44.3" y2="39.1"/>
		<line class="st0" x1="44.4" y1="39.7" x2="44.3" y2="39.1"/>
		<line class="st0" x1="44.4" y1="38.7" x2="44.3" y2="38.8"/>
		<line class="st0" x1="72.6" y1="76.8" x2="72.6" y2="76.8"/>
		<line class="st0" x1="40.4" y1="69.6" x2="40" y2="69.7"/>
		<line class="st0" x1="40" y1="69.7" x2="39.6" y2="69.8"/>
		<line class="st0" x1="40.9" y1="69.4" x2="40.4" y2="69.6"/>
		<polyline class="st0" points="44.2,18.6 44.1,18.8 44.1,18.8 		"/>
		<polyline class="st0" points="43.9,41.8 43.6,41.6 43.3,41.4 43,41.2 42.8,41 		"/>
		<line class="st0" x1="54.8" y1="79.4" x2="54.8" y2="79.4"/>
		<line class="st0" x1="54.8" y1="79.4" x2="54.8" y2="79.3"/>
		<line class="st0" x1="37.3" y1="70.7" x2="36.9" y2="70.8"/>
		<polyline class="st0" points="56.9,12.1 57.1,12 57.7,11.9 58.3,11.9 59,11.9 59.8,12 60.4,12.1 		"/>
		<line class="st0" x1="50.6" y1="49" x2="50.9" y2="49.8"/>
		<line class="st0" x1="37.4" y1="77.9" x2="37.4" y2="77.9"/>
		<line class="st0" x1="76.2" y1="56.8" x2="76.3" y2="56.8"/>
		<line class="st0" x1="76.1" y1="57" x2="76.1" y2="57"/>
		<line class="st0" x1="92.6" y1="29.6" x2="92.4" y2="29.8"/>
		<line class="st0" x1="92.7" y1="28" x2="92.9" y2="28.3"/>
		<line class="st0" x1="74.1" y1="58.6" x2="73.9" y2="58.6"/>
		<line class="st0" x1="87.6" y1="39.4" x2="87.8" y2="39.4"/>
		<line class="st0" x1="88.4" y1="22" x2="88.5" y2="22.1"/>
		<line class="st0" x1="87.9" y1="25.2" x2="87.9" y2="25.2"/>
		<line class="st0" x1="47" y1="46.2" x2="46.9" y2="46.1"/>
		<line class="st0" x1="70.8" y1="74.9" x2="70.8" y2="74.5"/>
		<line class="st0" x1="53.9" y1="11.8" x2="53.8" y2="11.8"/>
		<line class="st0" x1="69.3" y1="11.4" x2="69.2" y2="11.4"/>
		<line class="st0" x1="69.3" y1="11.4" x2="69.2" y2="11.4"/>
		<line class="st0" x1="43.1" y1="26.2" x2="43.1" y2="26.2"/>
		<line class="st0" x1="79.2" y1="13.9" x2="79.5" y2="14.2"/>
		<line class="st0" x1="31.6" y1="76.5" x2="33.2" y2="77.7"/>
		<polyline class="st0" points="40.7,33.4 40.2,33.1 39.8,32.8 		"/>
		<line class="st0" x1="45.1" y1="42.8" x2="45.7" y2="42.6"/>
		<polyline class="st0" points="44.7,42.8 44.6,42.8 44.5,42.8 		"/>
		<polyline class="st0" points="44.5,42.8 44.5,42.8 44.5,42.8 		"/>
		<line class="st0" x1="44.8" y1="42.8" x2="44.7" y2="42.8"/>
		<line class="st0" x1="45.8" y1="66.2" x2="46.4" y2="65.3"/>
		<line class="st0" x1="46.4" y1="65.3" x2="46.7" y2="65"/>
		<line class="st0" x1="47.8" y1="63.2" x2="48.4" y2="62"/>
		<line class="st0" x1="45.5" y1="19.6" x2="45.5" y2="19.6"/>
		<line class="st0" x1="48" y1="45.3" x2="48" y2="45.3"/>
		<line class="st0" x1="41.8" y1="23.8" x2="41.8" y2="24.2"/>
		<polyline class="st0" points="41.8,23.5 41.8,23.4 41.7,23.1 		"/>
		<line class="st0" x1="81.8" y1="47" x2="81.8" y2="47"/>
		<line class="st0" x1="43.7" y1="29.5" x2="43.6" y2="29.6"/>
		<line class="st0" x1="61.1" y1="10.9" x2="61.6" y2="10.9"/>
		<polyline class="st0" points="61.9,11 61.2,11 61.8,11 		"/>
		<line class="st0" x1="45.8" y1="19.3" x2="46" y2="18.9"/>
		<polyline class="st0" points="66.7,100.5 67,100.5 67.3,100.5 		"/>
		<line class="st0" x1="50.5" y1="15.9" x2="50.2" y2="16"/>
		<line class="st0" x1="90" y1="33.2" x2="90" y2="33.2"/>
		<line class="st0" x1="47.5" y1="87.1" x2="47.5" y2="87.1"/>
		<line class="st0" x1="47.5" y1="87.1" x2="47.5" y2="87.1"/>
		<line class="st0" x1="59.1" y1="80.3" x2="57.3" y2="80"/>
		<line class="st0" x1="91.5" y1="31.2" x2="90.9" y2="31.3"/>
		<line class="st0" x1="48.2" y1="57.7" x2="48.2" y2="57.7"/>
		<line class="st0" x1="48.6" y1="59.4" x2="48.7" y2="59.6"/>
		<line class="st0" x1="77.1" y1="79.5" x2="78.2" y2="80.2"/>
		<line class="st0" x1="88.2" y1="39.2" x2="88.4" y2="39.1"/>
		<polyline class="st0" points="38.9,80.5 37.9,79.9 37.2,79.7 		"/>
		<polyline class="st0" points="78,54.6 78.1,54.5 78,54.6 		"/>
		<line class="st0" x1="78.8" y1="54.6" x2="78.8" y2="54.6"/>
		<line class="st0" x1="78.4" y1="54.7" x2="78.4" y2="54.7"/>
		<line class="st0" x1="82.9" y1="46.1" x2="82.9" y2="46.1"/>
		<line class="st0" x1="83.5" y1="45.7" x2="83.9" y2="45.2"/>
		<line class="st0" x1="81.2" y1="41.8" x2="81.2" y2="41.8"/>
		<line class="st0" x1="88.7" y1="31.6" x2="88.6" y2="31.4"/>
		<line class="st0" x1="67" y1="10.8" x2="67" y2="10.8"/>
		<line class="st0" x1="66.9" y1="10.8" x2="66.5" y2="10.7"/>
		<line class="st0" x1="67" y1="10.8" x2="67" y2="10.8"/>
		<line class="st0" x1="70.3" y1="60.8" x2="70.1" y2="60.8"/>
		<line class="st0" x1="42.4" y1="34" x2="42.4" y2="34"/>
		<line class="st0" x1="39.8" y1="78.4" x2="39" y2="78.3"/>
		<polyline class="st0" points="45.7,50.2 45.8,50.4 45.9,50.6 		"/>
		<line class="st0" x1="69.5" y1="11.4" x2="69.5" y2="11.4"/>
		<line class="st0" x1="40.5" y1="32.5" x2="40.5" y2="32.6"/>
		<line class="st0" x1="81.7" y1="47.4" x2="81.9" y2="47"/>
		<line class="st0" x1="42.1" y1="39.4" x2="42.2" y2="39.5"/>
		<polyline class="st0" points="80.4,95.4 80.3,95.8 79.9,96.5 79.9,96.5 		"/>
		<polyline class="st0" points="89.1,28.9 89.1,28.5 89,27.9 		"/>
		<line class="st0" x1="53.5" y1="61.5" x2="53.6" y2="61.5"/>
		<polyline class="st0" points="75.2,67.1 75,68 74.9,68.6 74.8,69 		"/>
		<line class="st0" x1="74.8" y1="69" x2="74.7" y2="69.1"/>
		<line class="st0" x1="88.5" y1="30.9" x2="88.5" y2="30.8"/>
		<line class="st0" x1="80.8" y1="52.4" x2="80.6" y2="53"/>
		<line class="st0" x1="79.7" y1="28.5" x2="79.6" y2="28.3"/>
		<line class="st0" x1="81.8" y1="47" x2="81.9" y2="47"/>
		<polyline class="st0" points="87.6,39.4 87.5,39.5 87.1,39.7 		"/>
		<polyline class="st0" points="87.1,39.7 86.8,39.9 86.4,40 		"/>
		<polyline class="st0" points="88.6,38.6 88.7,38.5 88.6,38.6 		"/>
		<line class="st0" x1="81.5" y1="16.3" x2="81.8" y2="16.6"/>
		<line class="st0" x1="75.8" y1="57.9" x2="75.9" y2="57.6"/>
		<polyline class="st0" points="63,10.9 63.3,10.8 63.8,10.6 64.8,10.6 		"/>
		<polyline class="st0" points="61.1,11.1 61.1,11.1 61.5,11.1 		"/>
		<line class="st0" x1="60.5" y1="11" x2="61.1" y2="11.1"/>
		<line class="st0" x1="44.9" y1="78.5" x2="44.8" y2="78.5"/>
		<line class="st0" x1="44.9" y1="78.6" x2="45.1" y2="79.2"/>
		<polyline class="st0" points="50,60.9 49.9,60.6 50,60.8 		"/>
		<polyline class="st0" points="56.7,11.4 56.7,11.4 57.5,11.4 		"/>
		<polyline class="st0" points="92,27.9 92.3,27.9 92.6,28 92.7,28 		"/>
		<line class="st0" x1="90" y1="26.5" x2="90" y2="26.5"/>
		<line class="st0" x1="91" y1="27.6" x2="91" y2="27.6"/>
		<line class="st0" x1="48.5" y1="44.4" x2="48.5" y2="44.4"/>
		<line class="st0" x1="77.5" y1="51.4" x2="77.5" y2="51.4"/>
		<line class="st0" x1="60.3" y1="11" x2="60.4" y2="11"/>
		<polyline class="st0" points="60.3,11 59.9,11 59.5,10.9 		"/>
		<line class="st0" x1="59.5" y1="10.9" x2="58.9" y2="10.6"/>
		<line class="st0" x1="78.9" y1="54.8" x2="78.5" y2="55.7"/>
		<line class="st0" x1="42.5" y1="21.6" x2="42.6" y2="21.5"/>
		<polyline class="st0" points="43.3,20.9 44,20.4 44,20.4 		"/>
		<line class="st0" x1="87.9" y1="25.3" x2="87.9" y2="25.3"/>
		<line class="st0" x1="65.2" y1="11.5" x2="64.9" y2="11.7"/>
		<line class="st0" x1="64.4" y1="11.7" x2="64.9" y2="11.7"/>
		<polyline class="st0" points="80.2,14.9 79.9,14.7 79.5,14.2 		"/>
		<line class="st0" x1="80.1" y1="14.9" x2="80.2" y2="14.9"/>
		<polyline class="st0" points="80.2,14.9 80.2,14.9 80.3,15 80.6,15.2 		"/>
		<line class="st0" x1="53.5" y1="17.5" x2="53.3" y2="17.6"/>
		<polyline class="st0" points="46.2,44.8 45.9,44.6 45.6,44.3 45.4,44 45.2,43.7 45,43.4 44.9,43.1 44.8,42.8 		"/>
		<line class="st0" x1="48.7" y1="59.7" x2="48.7" y2="59.6"/>
		<line class="st0" x1="48.7" y1="59.7" x2="48.5" y2="60.6"/>
		<polyline class="st0" points="38.9,80.5 39.5,80.9 40.8,81.6 		"/>
		<polyline class="st0" points="41.2,37.9 41.2,37.8 41.2,37 		"/>
		<polyline class="st0" points="49.7,93.4 49,92.8 48.7,92.5 48.5,92.3 47.8,91.5 47.6,91.2 47.3,90.9 47.2,90.8 47,90.5 		"/>
		<polyline class="st0" points="30.8,75 30.7,75 30.6,75.2 		"/>
		<line class="st0" x1="76.1" y1="54.3" x2="76.1" y2="54.3"/>
		<line class="st0" x1="76.1" y1="54.4" x2="76.1" y2="54.4"/>
		<line class="st0" x1="80.1" y1="48.7" x2="80" y2="48.5"/>
		<line class="st0" x1="41.6" y1="35.6" x2="41.5" y2="35.4"/>
		<line class="st0" x1="41.5" y1="35.4" x2="41.4" y2="35.1"/>
		<line class="st0" x1="71.5" y1="76" x2="71.5" y2="76"/>
		<line class="st0" x1="71.4" y1="75.9" x2="71.2" y2="75.6"/>
		<line class="st0" x1="85" y1="18.9" x2="85" y2="18.9"/>
		<line class="st0" x1="82.4" y1="17.1" x2="82.4" y2="17.1"/>
		<polyline class="st0" points="59.8,100.5 60,100.5 60.3,100.5 61.5,100.5 		"/>
		<line class="st0" x1="82.5" y1="17.2" x2="82.5" y2="17.2"/>
		<line class="st0" x1="84.1" y1="18.3" x2="84.1" y2="18.4"/>
		<polyline class="st0" points="45.5,84.3 45.1,83.9 44.4,83.5 43.7,83.1 43.6,83 42.8,82.6 41.8,82.2 41,81.7 		"/>
		<line class="st0" x1="46.4" y1="16.7" x2="46.6" y2="16.5"/>
		<polyline class="st0" points="46.2,44.8 46.3,45.3 46.5,45.9 46.8,46.3 46.8,46.3 		"/>
		<polyline class="st0" points="43.4,19.1 43.1,19.7 43,19.9 		"/>
		<line class="st0" x1="42.7" y1="21" x2="42.8" y2="20.4"/>
		<line class="st0" x1="42.8" y1="20.4" x2="42.9" y2="20.2"/>
		<line class="st0" x1="47.8" y1="52.9" x2="48.5" y2="52.4"/>
		<polyline class="st0" points="47,90.5 47,90.5 46.8,90.4 		"/>
		<polyline class="st0" points="47,53.9 47.1,55 47.1,55 		"/>
		<polyline class="st0" points="73,12.8 73.4,12.9 73.4,12.9 		"/>
		<polyline class="st0" points="76.1,13.5 76.1,13.6 76.1,13.5 		"/>
		<polyline class="st0" points="53.4,12.4 53.7,12.2 54.1,12 		"/>
		<polyline class="st0" points="52.6,13 52.6,13 52.6,13 		"/>
		<polyline class="st0" points="46.3,85.6 46.3,85.6 46.4,85.9 		"/>
		<line class="st0" x1="89.7" y1="37.5" x2="89.8" y2="37.3"/>
		<line class="st0" x1="89.3" y1="38" x2="89.4" y2="37.8"/>
		<polyline class="st0" points="89.4,37.8 89.5,37.7 89.7,37.5 		"/>
		<line class="st0" x1="89.7" y1="37.5" x2="89.8" y2="37.3"/>
		<polyline class="st0" points="63.8,100.5 64.2,100.5 64.3,100.5 		"/>
		<line class="st0" x1="75.5" y1="56.1" x2="75.6" y2="56.1"/>
		<line class="st0" x1="41.7" y1="26.2" x2="41.7" y2="26.2"/>
		<line class="st0" x1="49" y1="19.1" x2="49.3" y2="18.6"/>
		<line class="st0" x1="42.7" y1="24.4" x2="42.7" y2="24.3"/>
		<line class="st0" x1="87" y1="24.2" x2="86.8" y2="23.8"/>
		<line class="st0" x1="80.8" y1="50.6" x2="81" y2="50.6"/>
		<line class="st0" x1="65.5" y1="100.5" x2="65.1" y2="100.5"/>
		<line class="st0" x1="50.7" y1="57.5" x2="50.6" y2="58.3"/>
		<polyline class="st0" points="66,11 65.8,11.1 65.2,11.5 		"/>
		<polyline class="st0" points="74.5,11.6 74.9,11.7 75.8,11.9 76.4,12 77.2,12.4 		"/>
		<line class="st0" x1="61.4" y1="11.6" x2="60.5" y2="11.3"/>
		<line class="st0" x1="48.6" y1="59.4" x2="48.5" y2="59.2"/>
		<line class="st0" x1="42.7" y1="21.5" x2="42.7" y2="21"/>
		<line class="st0" x1="70.9" y1="75.1" x2="70.9" y2="74.5"/>
		<line class="st0" x1="70.9" y1="75.2" x2="70.9" y2="75.2"/>
		<polyline class="st0" points="73.8,72.6 73.9,72.3 74.1,71.5 		"/>
		<polyline class="st0" points="77.2,12.4 77.6,12.6 77.8,12.7 		"/>
		<line class="st0" x1="78.3" y1="13" x2="78" y2="12.8"/>
		<line class="st0" x1="44.9" y1="37.7" x2="44.9" y2="37.6"/>
		<polyline class="st0" points="76.6,58.8 77.1,58.2 77.6,57.5 		"/>
		<line class="st0" x1="79.1" y1="54.4" x2="78.8" y2="54.6"/>
		<line class="st0" x1="45.1" y1="41" x2="45.1" y2="41"/>
		<polyline class="st0" points="61.5,11.1 61.5,11.1 61.9,11 		"/>
		<polyline class="st0" points="80,85.1 80,84.9 80,84.4 79.9,83.7 79.8,83 		"/>
		<line class="st0" x1="48.2" y1="99.2" x2="48.9" y2="99.1"/>
		<line class="st0" x1="90.3" y1="26.1" x2="90.3" y2="26.3"/>
		<line class="st0" x1="90.3" y1="26.3" x2="90.3" y2="26.3"/>
		<line class="st0" x1="76.6" y1="58.8" x2="76.8" y2="57"/>
		<line class="st0" x1="39.2" y1="31.7" x2="39" y2="31"/>
		<polyline class="st0" points="48.4,62 48.5,61.4 48.5,60.6 		"/>
		<line class="st0" x1="52.6" y1="13" x2="52.6" y2="13"/>
		<line class="st0" x1="47.6" y1="46.9" x2="47.6" y2="46.9"/>
		<polyline class="st0" points="51.8,13.1 51.8,13.1 52,12.9 52.6,12.4 53.2,12 53.8,11.8 		"/>
		<polyline class="st0" points="45.9,78.4 45.5,78.4 44.9,78.5 		"/>
		<line class="st0" x1="85.2" y1="40.4" x2="85.1" y2="39.9"/>
		<polyline class="st0" points="40.7,33.4 40.9,33.9 41,34 41.2,34.3 41.4,34.4 41.5,34.5 		"/>
		<polyline class="st0" points="89.9,37.1 89.9,36.8 89.9,36.8 		"/>
		<polyline class="st0" points="90,36.3 90.1,35.8 90.1,35.7 		"/>
		<polyline class="st0" points="47.8,63.2 47.6,63.5 47.1,64.3 		"/>
		<line class="st0" x1="47" y1="53.7" x2="46.9" y2="53.2"/>
		<line class="st0" x1="69.3" y1="100.5" x2="69.6" y2="100.5"/>
		<polyline class="st0" points="76.2,100.5 75,100.5 74.3,100.5 		"/>
		<polyline class="st0" points="74.3,100.5 73.7,100.5 72.8,100.5 72.2,100.5 71.7,100.5 70.7,100.5 69.2,100.5 		"/>
		<line class="st0" x1="69.2" y1="100.5" x2="69.1" y2="100.5"/>
		<polyline class="st0" points="61.9,100.5 62.4,100.5 62.4,100.5 		"/>
		<line class="st0" x1="41.9" y1="34.2" x2="41.9" y2="34.2"/>
		<line class="st0" x1="46.6" y1="52" x2="46.7" y2="52"/>
		<polygon class="st0" points="62.3,61.6 61.9,61.4 62,61.5 		"/>
		<polyline class="st0" points="62.3,61.6 62.5,62 62.3,62.4 62.6,62.8 		"/>
		<polygon class="st0" points="76.1,79.1 75.9,79.2 76.2,79.4 		"/>
		<line class="st0" x1="65.7" y1="62.9" x2="65.7" y2="63.1"/>
		<polygon class="st0" points="58.9,13.6 58.4,14.1 59,13.8 		"/>
		<polyline class="st0" points="65,63.5 65.1,63.8 65,64 64.8,64 64.5,64 64.3,63.8 63.8,63.6 		"/>
		<polyline class="st0" points="86.4,40 85.8,40.3 85.4,40.4 		"/>
		<polyline class="st0" points="65.3,63 64.9,63.2 64.6,63.2 64.8,62.6 64.4,63.1 64.3,62.7 64.1,63 		"/>
		<line class="st0" x1="59.5" y1="10.9" x2="59.7" y2="11"/>
		<line class="st0" x1="61.1" y1="10.9" x2="61.8" y2="11"/>
		<polyline class="st0" points="66.3,45.4 66.2,45.2 66.3,44.7 66.6,44.5 66,44.3 66.3,43.9 66.4,43.3 66.4,42.8 66.1,42.1 
			65.9,41.5 65.8,41.1 		"/>
		<polygon class="st0" points="59.4,61.4 58.9,61.1 58.5,60.8 58.2,60.3 58.6,60.2 59,60.7 		"/>
		<polygon class="st0" points="74.3,49.6 73.4,50.3 73.8,50.1 		"/>
		<polyline class="st0" points="61.5,45.8 60.8,45.6 60.8,46.1 		"/>
		<polyline class="st0" points="73.9,35.6 73.8,35.3 73.7,35.5 73.6,36 73.1,35.8 72.8,35.6 73.3,36.2 72.3,35.5 72.3,36.5 
			71.8,36.4 71.5,36.9 71.1,37.3 70.8,37.5 70.6,37.3 70.3,37.8 70.2,37.6 70,37.9 69.7,37.8 69.4,37.5 69.2,37.7 69.3,38 
			68.4,37.9 69.4,38.3 68.8,38.7 68.5,38.6 68.6,39.1 67.7,38.8 		"/>
		<line class="st0" x1="47.6" y1="100.4" x2="47.7" y2="100.5"/>
		<line class="st0" x1="40.8" y1="70.1" x2="40.3" y2="70.3"/>
		<line class="st0" x1="78.5" y1="54.7" x2="78.8" y2="54.6"/>
		<line class="st0" x1="65.1" y1="100.5" x2="64.7" y2="100.5"/>
		<line class="st0" x1="53" y1="59.5" x2="53" y2="59.1"/>
		<polyline class="st0" points="41.5,24.2 41.4,24.6 41.4,25 		"/>
		<line class="st0" x1="88.4" y1="22" x2="88.3" y2="21.6"/>
		<line class="st0" x1="91" y1="27.8" x2="91.1" y2="27.9"/>
		<line class="st0" x1="45.2" y1="41.4" x2="45.2" y2="41.3"/>
		<line class="st0" x1="52.2" y1="62.8" x2="52.3" y2="63"/>
		<line class="st0" x1="47" y1="52.6" x2="47" y2="52.7"/>
		<polyline class="st0" points="36.2,71.2 35.7,71.4 34.8,71.8 		"/>
		<line class="st0" x1="45.8" y1="42.3" x2="45.8" y2="42.3"/>
		<polyline class="st0" points="87.8,39.4 87.9,39.4 88.1,39.3 		"/>
		<line class="st0" x1="50" y1="62.8" x2="50" y2="62.7"/>
		<line class="st0" x1="88.4" y1="39.1" x2="88.6" y2="38.9"/>
		<line class="st0" x1="67.7" y1="63.4" x2="67.7" y2="63.4"/>
		<polyline class="st0" points="80.9,15.6 81.2,15.8 81.3,16.1 		"/>
		<polyline class="st0" points="41.7,25.2 41.7,24.9 41.7,24.8 		"/>
		<line class="st0" x1="48.1" y1="50.8" x2="48.2" y2="50.7"/>
		<line class="st0" x1="76.9" y1="57" x2="76.8" y2="57"/>
		<line class="st0" x1="60.6" y1="11" x2="61.1" y2="10.9"/>
		<line class="st0" x1="39.8" y1="32.8" x2="39.5" y2="32.5"/>
		<line class="st0" x1="89.9" y1="37.1" x2="89.8" y2="37.3"/>
		<line class="st0" x1="47.3" y1="45.8" x2="47.3" y2="45.9"/>
		<polyline class="st0" points="57.5,10.6 57.1,10.8 56.4,11.2 		"/>
		<polyline class="st0" points="69.8,59.8 69.8,59.6 69.8,59.4 		"/>
		<line class="st0" x1="80.2" y1="85.6" x2="80" y2="85.1"/>
		<polyline class="st0" points="60.9,58.5 61.1,58.6 61.5,59 		"/>
		<line class="st0" x1="85.1" y1="18.3" x2="84.5" y2="17.9"/>
		<line class="st0" x1="91" y1="27.4" x2="91.2" y2="27.5"/>
		<line class="st0" x1="84.8" y1="43.7" x2="85" y2="43.1"/>
		<line class="st0" x1="70.3" y1="60.8" x2="70.7" y2="60.8"/>
		<polyline class="st0" points="84.6,44.2 84.3,44.6 84.1,45 83.9,45.2 		"/>
		<polyline class="st0" points="84.8,43.7 84.7,43.8 84.6,44.2 		"/>
		<line class="st0" x1="85" y1="43" x2="85" y2="43.1"/>
		<polyline class="st0" points="85,43 85.1,42.7 85.2,42.5 		"/>
		<line class="st0" x1="90.9" y1="28" x2="90.6" y2="27.6"/>
		<line class="st0" x1="90.4" y1="27.5" x2="90.9" y2="28.2"/>
		<polyline class="st0" points="88.5,38.3 88.6,38.1 88.7,38 		"/>
		<polyline class="st0" points="68.5,62.8 68.4,63 68.3,63.1 68.2,63.3 68.1,63.4 		"/>
		<line class="st0" x1="48.6" y1="14.6" x2="48" y2="15"/>
		<line class="st0" x1="34" y1="72.4" x2="33.4" y2="72.7"/>
		<polyline class="st0" points="49.6,62.5 49.5,62.4 49.4,62 		"/>
		<polyline class="st0" points="87.4,30.9 87.5,30.9 87.6,31 		"/>
		<polyline class="st0" points="78.2,80.2 78.8,80.7 79.3,81.4 79.5,81.7 79.7,82.2 		"/>
		<polyline class="st0" points="44.2,42.4 43.9,41.9 43.9,41.8 		"/>
		<polyline class="st0" points="31.6,76.5 30.9,75.8 30.7,75.7 		"/>
		<line class="st0" x1="44.7" y1="38.5" x2="44.8" y2="38"/>
		<line class="st0" x1="65.4" y1="39.8" x2="65.9" y2="40"/>
		<polyline class="st0" points="39.2,31.7 39.4,32.4 39.5,32.5 		"/>
		<line class="st0" x1="39" y1="31" x2="38.9" y2="30.5"/>
		<line class="st0" x1="48" y1="16.1" x2="47.6" y2="16.3"/>
		<line class="st0" x1="69.7" y1="60.7" x2="69.6" y2="60.8"/>
		<polyline class="st0" points="37.3,77.9 37,78 36.5,78.1 		"/>
		<line class="st0" x1="66.4" y1="10.9" x2="66" y2="11"/>
		<line class="st0" x1="88.6" y1="38.9" x2="88.6" y2="38.8"/>
		<line class="st0" x1="72.9" y1="48.8" x2="72.6" y2="49.1"/>
		<line class="st0" x1="47" y1="46.1" x2="47" y2="46.1"/>
		<line class="st0" x1="87.7" y1="23.1" x2="87.5" y2="22.5"/>
		<polyline class="st0" points="49.8,14.1 50.2,13.9 51.1,13.7 		"/>
		<polyline class="st0" points="71.1,11.4 71.9,11.4 72.7,11.4 73,11.4 		"/>
		<line class="st0" x1="89.1" y1="28.9" x2="89.1" y2="29.1"/>
		<line class="st0" x1="45.9" y1="84.8" x2="46.2" y2="85.3"/>
		<line class="st0" x1="45.9" y1="84.8" x2="45.5" y2="84.3"/>
		<line class="st0" x1="47.8" y1="99.3" x2="47.9" y2="99.2"/>
		<polyline class="st0" points="77,51.9 76.7,52.2 77,51.8 		"/>
		<polyline class="st0" points="52.5,53.5 52.4,53.7 52.4,53.7 		"/>
		<line class="st0" x1="83.3" y1="17.9" x2="84" y2="18.4"/>
		<polyline class="st0" points="74.8,78 74.3,77.8 73.9,77.5 73.6,77.3 73.4,77.2 		"/>
		<polyline class="st0" points="75.1,78.2 74.7,78 74.2,77.8 		"/>
		<line class="st0" x1="74.8" y1="78" x2="74.4" y2="77.8"/>
		<polyline class="st0" points="91.1,33.5 91.1,33.2 91,32.9 		"/>
		<polyline class="st0" points="91.2,33.8 91.1,33.5 91.1,33.5 		"/>
		<line class="st0" x1="89" y1="31.5" x2="89" y2="31.6"/>
		<line class="st0" x1="46.8" y1="89.4" x2="46.8" y2="89.6"/>
		<polyline class="st0" points="47.4,20.9 47.2,21.2 47.1,21.5 		"/>
		<polyline class="st0" points="91.1,34.4 91,34.8 90.8,35.1 90.7,35.3 		"/>
		<line class="st0" x1="70.7" y1="62" x2="70.4" y2="62.1"/>
		<line class="st0" x1="38" y1="70.4" x2="37.5" y2="70.6"/>
		<line class="st0" x1="75.7" y1="55.8" x2="75.8" y2="55.6"/>
		<line class="st0" x1="75.7" y1="55.8" x2="75.7" y2="56"/>
		<line class="st0" x1="81.8" y1="49.4" x2="81.7" y2="49.8"/>
		<polyline class="st0" points="30.8,75.4 30.7,75 30.8,75 		"/>
		<polyline class="st0" points="30.7,75.6 30.6,75.3 30.6,75.2 		"/>
		<line class="st0" x1="65.6" y1="59.7" x2="65.5" y2="59.7"/>
		<polyline class="st0" points="64.2,60 64.6,59.9 65,59.8 		"/>
		<polyline class="st0" points="41.7,23.1 41.8,22.8 41.8,22.6 		"/>
		<line class="st0" x1="72.2" y1="52.1" x2="72.2" y2="51.5"/>
		<line class="st0" x1="49.4" y1="79.3" x2="49.5" y2="79.5"/>
		<line class="st0" x1="49.2" y1="78.9" x2="48.9" y2="78.8"/>
		<polyline class="st0" points="89.3,25.8 89.4,25.9 89.8,26.2 		"/>
		<line class="st0" x1="42.9" y1="25.6" x2="42.9" y2="25.6"/>
		<line class="st0" x1="91.4" y1="28.4" x2="91.1" y2="27.9"/>
		<line class="st0" x1="91.2" y1="28" x2="91.4" y2="28.2"/>
		<line class="st0" x1="91.2" y1="28" x2="91.2" y2="28"/>
		<polyline class="st0" points="67.7,53.5 67.9,53.6 68.2,53.6 		"/>
		<polyline class="st0" points="68.1,54.7 68,54.5 67.9,54.2 67.7,54 67.7,53.9 67.5,53.7 67.5,53.6 67.3,53.5 		"/>
		<polyline class="st0" points="48,58.2 47.9,57.7 47.9,57.3 		"/>
		<polyline class="st0" points="66.5,10.7 65.9,10.6 65.8,10.6 		"/>
		<line class="st0" x1="38.9" y1="30.2" x2="38.9" y2="29.8"/>
		<polyline class="st0" points="67.8,10.4 67.4,10.6 67.2,10.7 		"/>
		<polyline class="st0" points="44.6,39 44.6,38.8 44.7,38.5 		"/>
		<line class="st0" x1="78.4" y1="98.7" x2="79.2" y2="97.8"/>
		<polyline class="st0" points="90.1,35.2 90,34.6 90.1,34.3 		"/>
		<polyline class="st0" points="79.4,27.5 79.8,27.6 80.1,27.8 		"/>
		<polyline class="st0" points="83.5,17.3 83.3,17.2 83.5,17.3 		"/>
		<line class="st0" x1="40.5" y1="69.6" x2="40.4" y2="69.6"/>
		<polyline class="st0" points="88.3,36.2 88.3,36.2 88.3,36.2 		"/>
		<line class="st0" x1="47" y1="86.3" x2="47.2" y2="86.7"/>
		<polyline class="st0" points="51.9,44.5 51.8,44.8 51.8,45.2 		"/>
		<line class="st0" x1="53.5" y1="17.5" x2="53.9" y2="17.4"/>
		<line class="st0" x1="57.4" y1="17.8" x2="58.3" y2="17.4"/>
		<line class="st0" x1="90.1" y1="35.7" x2="90.1" y2="35.7"/>
		<line class="st0" x1="90.1" y1="35.7" x2="90.7" y2="35.3"/>
		<line class="st0" x1="44" y1="41.9" x2="43.9" y2="41.8"/>
		<line class="st0" x1="51.1" y1="60.2" x2="50.9" y2="59.8"/>
		<line class="st0" x1="36.2" y1="71.2" x2="36.4" y2="71.1"/>
		<line class="st0" x1="36.9" y1="70.8" x2="36.4" y2="71.1"/>
		<polyline class="st0" points="80.6,53 80.4,53.4 80,53.8 79.8,53.9 79.6,54 		"/>
		<polyline class="st0" points="88.3,21.6 88,21.1 87.7,20.7 87.2,20.1 87.1,20 86.3,19.6 86.3,19.5 		"/>
		<line class="st0" x1="53.5" y1="61.5" x2="53.3" y2="61"/>
		<polyline class="st0" points="37.2,77.9 36.9,77.9 37.2,77.9 		"/>
		<line class="st0" x1="76.1" y1="57.1" x2="76" y2="57.2"/>
		<line class="st0" x1="85.1" y1="18.3" x2="86" y2="19.2"/>
		<polyline class="st0" points="92.9,28.3 93,28.7 93,28.9 92.8,29.4 92.6,29.6 		"/>
		<line class="st0" x1="74.5" y1="58.8" x2="74.6" y2="58.8"/>
		<line class="st0" x1="41.6" y1="24.1" x2="41.8" y2="23.6"/>
		<line class="st0" x1="70.8" y1="74.5" x2="70.7" y2="74"/>
		<polyline class="st0" points="53.2,50.5 53.4,51 53.7,51.6 54.2,52.2 		"/>
		<line class="st0" x1="79.2" y1="13.9" x2="78.3" y2="13"/>
		<polyline class="st0" points="45.1,42.9 45,42.9 44.8,42.8 		"/>
		<polyline class="st0" points="41.2,37.9 41.4,38.4 41.6,38.8 		"/>
		<line class="st0" x1="47.7" y1="63.4" x2="47.8" y2="63.2"/>
		<line class="st0" x1="39" y1="29.4" x2="38.9" y2="29.8"/>
		<line class="st0" x1="89.1" y1="29.5" x2="89.1" y2="29.6"/>
		<line class="st0" x1="50.5" y1="16.5" x2="50.5" y2="16.5"/>
		<polyline class="st0" points="64.4,63.8 63.9,63.6 63.9,63.6 		"/>
		<line class="st0" x1="41.7" y1="23.1" x2="41.8" y2="23.5"/>
		<polyline class="st0" points="42.1,22.1 41.9,22.3 41.8,22.4 41.8,22.6 		"/>
		<line class="st0" x1="42.5" y1="21.6" x2="42.1" y2="22.1"/>
		<polygon class="st0" points="41.8,24.1 41.8,24.3 41.9,24 		"/>
		<line class="st0" x1="52.5" y1="64.2" x2="52.4" y2="63.9"/>
		<line class="st0" x1="61.4" y1="11.6" x2="62.2" y2="12"/>
		<line class="st0" x1="76.2" y1="100.5" x2="76.5" y2="100.5"/>
		<polyline class="st0" points="87.8,24.2 87.8,23.7 87.7,23.1 		"/>
		<polyline class="st0" points="43.3,36.3 43.4,36.5 43.4,36.6 		"/>
		<polyline class="st0" points="45.8,47.6 45.6,48.4 45.5,48.9 45.5,49.5 45.6,49.9 45.7,50.2 		"/>
		<line class="st0" x1="46.2" y1="47.2" x2="46.3" y2="47"/>
		<polyline class="st0" points="44.2,18.3 43.5,19 43.4,19.1 		"/>
		<line class="st0" x1="90.2" y1="33.3" x2="90" y2="33.1"/>
		<line class="st0" x1="47.5" y1="87.7" x2="47.5" y2="87.6"/>
		<line class="st0" x1="47.5" y1="88.2" x2="47.4" y2="88.7"/>
		<line class="st0" x1="47.5" y1="88.2" x2="47.5" y2="87.7"/>
		<line class="st0" x1="90.9" y1="31.3" x2="90.7" y2="31.3"/>
		<polyline class="st0" points="91.5,31.2 91.8,30.9 92.1,30.6 92.4,29.9 92.6,29.6 		"/>
		<polyline class="st0" points="67.8,10.4 68.1,10.4 68.8,10.4 		"/>
		<line class="st0" x1="48" y1="15" x2="47.5" y2="15.4"/>
		<line class="st0" x1="76.2" y1="78.9" x2="77.1" y2="79.5"/>
		<polyline class="st0" points="39.2,28.8 39.3,28.4 39.6,27.9 		"/>
		<line class="st0" x1="88.2" y1="39.2" x2="88.1" y2="39.3"/>
		<polyline class="st0" points="81.9,49 81.9,48.3 81.9,48.1 81.7,47.6 81.7,47.4 		"/>
		<line class="st0" x1="63.8" y1="12.5" x2="64.2" y2="12.6"/>
		<line class="st0" x1="78.4" y1="54.7" x2="78.5" y2="54.7"/>
		<line class="st0" x1="78.2" y1="54.7" x2="78.4" y2="54.7"/>
		<line class="st0" x1="83.2" y1="46" x2="82.9" y2="46.1"/>
		<polyline class="st0" points="83.2,46 83.4,45.8 83.4,45.7 		"/>
		<line class="st0" x1="69.9" y1="60.9" x2="70.1" y2="60.8"/>
		<line class="st0" x1="45.9" y1="50.6" x2="45.9" y2="50.6"/>
		<polyline class="st0" points="54.6,13.9 54.8,13.6 55.2,13.2 		"/>
		<polyline class="st0" points="81,91.7 81,91.2 81,90.8 81,90.1 81,89.6 		"/>
		<polyline class="st0" points="81.1,92.4 81,93.1 80.8,94.2 80.4,95.4 		"/>
		<line class="st0" x1="81" y1="91.7" x2="81.1" y2="92.4"/>
		<line class="st0" x1="85.3" y1="41.8" x2="85.2" y2="42.5"/>
		<polyline class="st0" points="52.9,65.9 52.9,66.5 53,67.2 		"/>
		<line class="st0" x1="79.9" y1="96.6" x2="79.5" y2="97.3"/>
		<line class="st0" x1="79.9" y1="96.6" x2="79.9" y2="96.5"/>
		<line class="st0" x1="68.6" y1="62.7" x2="68.8" y2="62.4"/>
		<line class="st0" x1="45" y1="67.1" x2="44.3" y2="67.8"/>
		<line class="st0" x1="45.4" y1="66.7" x2="45.4" y2="66.7"/>
		<line class="st0" x1="66.4" y1="11.1" x2="66.9" y2="10.8"/>
		<polyline class="st0" points="80.8,52.4 80.9,52.1 80.9,51.5 80.8,50.8 		"/>
		<line class="st0" x1="46" y1="43.3" x2="46" y2="43.3"/>
		<line class="st0" x1="67.6" y1="11.5" x2="66.7" y2="11.8"/>
		<line class="st0" x1="47.7" y1="100.5" x2="47.7" y2="100.5"/>
		<polyline class="st0" points="47.7,100.5 47.7,99.8 47.6,99.7 		"/>
		<polyline class="st0" points="52.5,64.2 52.6,64.7 52.7,65.2 52.8,65.5 		"/>
		<polyline class="st0" points="50.1,61.7 50.1,62 50.1,62.4 		"/>
		<line class="st0" x1="54.1" y1="12" x2="54.8" y2="11.8"/>
		<line class="st0" x1="55.4" y1="11.6" x2="54.8" y2="11.8"/>
		<line class="st0" x1="91.7" y1="27.8" x2="92" y2="27.9"/>
		<line class="st0" x1="49" y1="59.8" x2="49" y2="59.9"/>
		<line class="st0" x1="56.4" y1="79.8" x2="57.3" y2="80"/>
		<polyline class="st0" points="77.6,57.5 78,56.7 78.5,55.8 78.5,55.7 		"/>
		<polyline class="st0" points="50.5,15.3 50.1,15.5 49.5,15.7 		"/>
		<polyline class="st0" points="82.8,16.8 82.1,16.4 81.7,16.2 81.3,16.1 		"/>
		<polyline class="st0" points="46.3,44.9 46.2,44.8 46.2,44.8 		"/>
		<line class="st0" x1="48.7" y1="60" x2="48.7" y2="59.7"/>
		<polyline class="st0" points="41.2,37 41.2,36.6 41.4,35.8 41.5,35.4 		"/>
		<line class="st0" x1="87.3" y1="34.8" x2="87.4" y2="34.9"/>
		<line class="st0" x1="87.3" y1="34.8" x2="87.3" y2="34.3"/>
		<line class="st0" x1="64.8" y1="17" x2="64.7" y2="16.9"/>
		<line class="st0" x1="49.4" y1="79.3" x2="49.2" y2="78.9"/>
		<line class="st0" x1="69.5" y1="18.2" x2="70.8" y2="18.2"/>
		<polyline class="st0" points="69.5,18.2 68.9,18.2 68.2,18.2 		"/>
		<polyline class="st0" points="47.8,21.1 47.9,20.8 48.2,20.3 48.6,19.7 49,19.1 		"/>
		<line class="st0" x1="85.6" y1="38.8" x2="86" y2="39"/>
		<polyline class="st0" points="55.6,100.5 57.1,100.5 57.2,100.5 		"/>
		<line class="st0" x1="85.7" y1="27.7" x2="85.8" y2="27.9"/>
		<line class="st0" x1="41.4" y1="25.2" x2="41.4" y2="25"/>
		<polyline class="st0" points="64.1,63 64.1,63.1 63.9,63.5 		"/>
		<polyline class="st0" points="67.6,63.2 67.2,63 66.6,62.5 		"/>
		<polyline class="st0" points="50.9,49.8 51.1,50.2 51.3,50.7 		"/>
		<polyline class="st0" points="72.7,54 72.5,53.6 72.3,53.1 72.2,52.6 72.2,52.1 		"/>
		<polyline class="st0" points="46.6,86.6 46.7,87.2 46.7,87.8 46.7,87.9 46.8,88.3 46.8,88.8 46.8,89 46.8,89.3 46.8,89.5 
			46.8,89.6 		"/>
		<line class="st0" x1="46.2" y1="85.4" x2="46.3" y2="85.6"/>
		<line class="st0" x1="46.6" y1="86.6" x2="46.4" y2="85.9"/>
		<line class="st0" x1="89.3" y1="37.9" x2="89.4" y2="37.8"/>
		<line class="st0" x1="47" y1="46.1" x2="47" y2="46.1"/>
		<line class="st0" x1="41.5" y1="25.7" x2="41.5" y2="25.8"/>
		<line class="st0" x1="42.7" y1="24.4" x2="42.3" y2="24.9"/>
		<polyline class="st0" points="53.2,50.5 53.2,49.9 53.2,49.6 		"/>
		<polyline class="st0" points="50.6,47.7 50.8,47 50.9,46.7 51.2,46.1 51.5,45.7 51.8,45.2 51.9,44.8 		"/>
		<line class="st0" x1="81.8" y1="16.7" x2="81.6" y2="16.4"/>
		<line class="st0" x1="50.6" y1="58.3" x2="50.7" y2="59.2"/>
		<line class="st0" x1="40.1" y1="32.7" x2="40.3" y2="32.7"/>
		<polyline class="st0" points="73.8,11.5 74.4,11.6 74.5,11.6 		"/>
		<line class="st0" x1="48.8" y1="59.7" x2="49" y2="59.8"/>
		<polyline class="st0" points="48,58.2 48.2,58.6 48.5,59.2 		"/>
		<line class="st0" x1="41" y1="70" x2="41.4" y2="69.8"/>
		<polyline class="st0" points="41,70 40.8,70.1 40.8,70.1 		"/>
		<line class="st0" x1="50" y1="60.9" x2="50" y2="60.9"/>
		<line class="st0" x1="41.4" y1="25.2" x2="41.5" y2="25.7"/>
		<polyline class="st0" points="50.5,19.6 50.2,19.8 49.9,20.1 		"/>
		<line class="st0" x1="44.8" y1="38" x2="44.8" y2="37.8"/>
		<line class="st0" x1="86" y1="19.2" x2="86.3" y2="19.6"/>
		<line class="st0" x1="79.7" y1="53.8" x2="79.6" y2="54"/>
		<line class="st0" x1="62.3" y1="11" x2="62.4" y2="11"/>
		<line class="st0" x1="80.2" y1="85.8" x2="80" y2="85.1"/>
		<polyline class="st0" points="48.9,99.1 49,99 49.3,98.8 49.4,98.5 49.5,98 49.6,95.9 49.7,93.4 		"/>
		<line class="st0" x1="48.2" y1="99.2" x2="47.9" y2="99.2"/>
		<polyline class="st0" points="83.6,31.4 84,31.5 84.2,31.4 		"/>
		<polyline class="st0" points="52.2,53.8 51.7,54.5 51.3,55 		"/>
		<polyline class="st0" points="52.6,61.6 52.3,61.5 51.9,61.2 51.5,60.8 		"/>
		<line class="st0" x1="88.8" y1="25.6" x2="89.3" y2="25.8"/>
		<line class="st0" x1="88.8" y1="25.6" x2="88.2" y2="25"/>
		<polyline class="st0" points="53,65.1 53,64.7 53.2,64.1 		"/>
		<line class="st0" x1="85.1" y1="39.7" x2="85.1" y2="39.8"/>
		<line class="st0" x1="85.3" y1="40.6" x2="85.3" y2="41"/>
		<line class="st0" x1="90" y1="36.3" x2="89.9" y2="36.8"/>
		<line class="st0" x1="41.8" y1="34.3" x2="41.9" y2="34.2"/>
		<line class="st0" x1="39.6" y1="69.8" x2="39.1" y2="70"/>
		<line class="st0" x1="41.7" y1="25.2" x2="41.7" y2="25.5"/>
		<line class="st0" x1="41.7" y1="25.3" x2="41.7" y2="25.5"/>
	</g>
</g>
</svg>
